<?xml version="1.0" standalone="no"?>
<!DOCTYPE svg PUBLIC "-//W3C//DTD SVG 1.1//EN" "//www.w3.org/Graphics/SVG/1.1/DTD/svg11.dtd" >
<svg xmlns="//www.w3.org/2000/svg">
<metadata>Generated by IcoMoon</metadata>
<defs>
<font id="univero-icons" horiz-adv-x="1024">
<font-face units-per-em="1024" ascent="960" descent="-64" />
<missing-glyph horiz-adv-x="1024" />
<glyph unicode="&#x20;" horiz-adv-x="512" d="" />
<glyph unicode="&#xe900;" glyph-name="bar-chart" d="M188.987 460.185h-156.854c-17.746 0-32.133-14.383-32.133-32.133v-374.618c0-17.75 14.387-32.133 32.133-32.133h156.854c17.746 0 32.133 14.383 32.133 32.133v374.618c0 17.746-14.387 32.133-32.133 32.133zM156.854 85.562h-92.589v310.353h92.589v-310.353zM724.178 643.456h-156.85c-17.746 0-32.133-14.383-32.133-32.133v-557.894c0-17.75 14.387-32.133 32.133-32.133h156.85c17.746 0 32.133 14.383 32.133 32.133v557.894c0 17.75-14.387 32.133-32.133 32.133zM692.045 85.562h-92.585v493.629h92.585v-493.629zM456.556 716.911h-156.811c-17.746 0-32.133-14.383-32.133-32.133v-631.345c0-17.75 14.387-32.133 32.133-32.133h156.815c17.746 0 32.133 14.383 32.133 32.133v631.345c-0.004 17.746-14.387 32.133-32.137 32.133zM424.424 85.562h-92.546v567.084h92.55v-567.084zM991.867 874.703h-156.871c-17.746 0-32.133-14.383-32.133-32.133v-789.137c0-17.75 14.387-32.133 32.133-32.133h156.871c17.746 0 32.133 14.383 32.133 32.133v789.137c0 17.746-14.387 32.133-32.133 32.133zM959.735 85.562h-92.606v724.876h92.606v-724.876z" />
<glyph unicode="&#xe901;" glyph-name="blocked" d="M512.002 959.995c-282.327 0-512.002-229.69-512.002-512.017 0.024-282.298 229.709-511.974 512.002-511.974 282.317 0 512.002 229.671 512.002 511.979-0.005 282.322-229.685 512.012-512.002 512.012zM512.002 888.704c104.66 0 200.893-36.696 276.571-97.868l-619.409-619.405c-61.163 75.673-97.864 171.902-97.873 276.552 0 243.012 197.704 440.721 440.711 440.721zM512.002 7.296c-112.725 0-215.684 42.565-293.705 112.44l621.966 621.966c69.879-78.021 112.445-180.989 112.445-293.724 0-242.993-197.704-440.683-440.707-440.683z" />
<glyph unicode="&#xe902;" glyph-name="book" d="M910.376 960h-684.276c-79.999 0-145.076-65.086-145.076-145.089v-733.797c0-79.977 65.077-145.076 145.076-145.115h684.281c18.008 0 32.599 14.596 32.599 32.599v958.801c-0.004 18.003-14.596 32.599-32.604 32.599zM226.1 894.801h651.681v-668.611h-651.681c-29.496 0-56.953-8.871-79.877-24.054v612.775c0 44.052 35.833 79.89 79.877 79.89zM226.113 1.199c-44.057 0.022-79.894 35.868-79.894 79.916s35.833 79.881 79.877 79.881h651.681v-47.282h-651.677c-18.008 0-32.599-14.596-32.599-32.599s14.591-32.599 32.599-32.599h651.681v-47.317h-651.668zM269.301 554.891h485.399c18.008 0 32.599 14.596 32.599 32.599v160.384c0 18.003-14.591 32.599-32.599 32.599h-485.399c-18.008 0-32.599-14.596-32.599-32.599v-160.384c0-18.003 14.591-32.599 32.599-32.599zM301.9 715.275h420.2v-95.186h-420.2v95.186z" />
<glyph unicode="&#xe903;" glyph-name="book-with-bookmark" d="M910.381 960h-684.285c-79.999-0.022-145.076-65.112-145.076-145.102v-733.801c0-79.99 65.081-145.080 145.084-145.097h684.281c18.008 0 32.599 14.596 32.599 32.599v958.801c-0.004 18.003-14.596 32.599-32.604 32.599zM391.839 894.801v-165.552l-10.471 10.475c-6.111 6.116-14.405 9.549-23.054 9.549s-16.943-3.438-23.059-9.554l-10.458-10.462v165.544h67.042zM226.104 894.801h33.499v-244.251c0-18.003 14.618-32.599 32.625-32.599 8.65 0 16.943 3.434 23.059 9.554l43.035 43.057 43.048-43.061c6.111-6.116 14.405-9.549 23.054-9.549h0.017c18.008 0 32.599 14.596 32.599 32.599v244.251h420.744v-668.603h-651.69c-29.496-0.009-56.953-8.884-79.877-24.071v612.771c0 44.044 35.842 79.89 79.886 79.903zM226.113 1.199c-44.057 0.009-79.894 35.851-79.894 79.899s35.842 79.894 79.886 79.907h651.681v-47.308h-651.681c-18.008 0-32.599-14.596-32.599-32.599s14.591-32.599 32.599-32.599h651.681v-47.299h-651.673z" />
<glyph unicode="&#xe904;" glyph-name="brightness" d="M511.945 101.847c-18.251 0-33.040-14.789-33.040-33.040v-99.749c0-18.251 14.789-33.040 33.040-33.040s33.040 14.789 33.040 33.040v99.749c0 18.251-14.789 33.040-33.040 33.040zM511.945 794.162c18.251 0 33.040 14.789 33.040 33.040v99.736c0 18.251-14.789 33.040-33.040 33.040s-33.040-14.789-33.040-33.040v-99.741c0-18.247 14.789-33.035 33.040-33.035zM220.503 203.257l-70.555-70.52c-12.908-12.903-12.912-33.82-0.013-46.723 6.454-6.458 14.912-9.683 23.37-9.683 8.454 0 16.908 3.22 23.357 9.67l70.555 70.52c12.908 12.903 12.912 33.82 0.013 46.723-12.908 12.912-33.828 12.916-46.727 0.013zM780.105 683.118c8.454 0 16.908 3.22 23.357 9.67l70.551 70.52c12.908 12.903 12.912 33.82 0.013 46.723-12.908 12.916-33.828 12.912-46.727 0.013l-70.555-70.52c-12.908-12.903-12.912-33.82-0.013-46.727 6.458-6.454 14.916-9.678 23.375-9.678zM165.838 447.998c0 18.251-14.789 33.040-33.040 33.040h-99.758c-18.251 0-33.040-14.789-33.040-33.040s14.789-33.040 33.040-33.040h99.758c18.247 0 33.040 14.793 33.040 33.040zM990.96 481.038h-99.789c-18.251 0-33.040-14.789-33.040-33.040s14.789-33.040 33.040-33.040h99.789c18.251 0 33.040 14.789 33.040 33.040s-14.789 33.040-33.040 33.040zM220.494 692.796c6.454-6.454 14.908-9.678 23.366-9.678 8.454 0 16.912 3.225 23.361 9.674 12.908 12.903 12.908 33.824 0.004 46.723l-70.52 70.52c-12.908 12.908-33.828 12.903-46.723 0.004-12.908-12.903-12.908-33.824-0.004-46.723l70.516-70.52zM803.506 203.248c-12.908 12.903-33.828 12.908-46.723 0.004-12.908-12.903-12.908-33.824-0.004-46.727l70.516-70.52c6.454-6.454 14.908-9.678 23.366-9.678 8.454 0 16.912 3.225 23.361 9.674 12.908 12.903 12.908 33.824 0.004 46.727l-70.52 70.52zM511.985 745.462c-164.018 0-297.459-133.441-297.459-297.459s133.441-297.459 297.459-297.459 297.455 133.441 297.455 297.459-133.437 297.459-297.455 297.459zM511.985 216.618c-127.586 0-231.38 103.793-231.38 231.38s103.793 231.384 231.38 231.384c127.582 0 231.375-103.798 231.375-231.38s-103.793-231.384-231.375-231.384z" />
<glyph unicode="&#xe905;" glyph-name="broken-link" d="M971.451 767.993c-70.011 70.057-183.993 70.076-254.080 0.057-0.137-0.137-0.256-0.29-0.389-0.431l-124.464-124.479c-11.172-11.172-11.168-29.286 0.004-40.454 5.584-5.584 12.904-8.376 20.227-8.376 7.32 0 14.643 2.792 20.231 8.38l124.902 124.918c0.084 0.084 0.153 0.179 0.24 0.263 47.804 47.427 125.253 47.324 172.874-0.328 47.751-47.739 47.762-125.425 0.031-173.176l-175.113-175.11c-23.126-23.13-53.88-35.869-86.592-35.869s-63.466 12.736-86.599 35.869c-11.172 11.172-29.286 11.172-40.458 0s-11.172-29.286 0-40.454c33.939-33.936 79.059-52.626 127.054-52.626s93.114 18.69 127.050 52.626l175.113 175.113c70.042 70.057 70.023 184.043-0.031 254.077zM227.621 557.224l-175.113-175.11c-70.007-70.057-70.007-184.043 0.008-254.103 35.030-35.034 81.042-52.549 127.061-52.545 45.985 0.004 91.985 17.5 127.004 52.492 0.008 0.011 0.019 0.019 0.031 0.031l124.902 124.937c11.168 11.176 11.168 29.286-0.008 40.458-11.176 11.168-29.282 11.168-40.458-0.004l-124.902-124.937c-0.004-0.004-0.004-0.008-0.008-0.011-47.755-47.72-125.429-47.701-173.161 0.034-47.724 47.755-47.724 125.455-0.008 173.203l175.11 175.106c47.751 47.755 125.444 47.759 173.195 0.015 11.172-11.172 29.286-11.172 40.454 0.004 11.172 11.172 11.168 29.286-0.004 40.454-70.061 70.045-184.054 70.038-254.103-0.023zM474.546 757.367c4.562-11.019 15.215-17.672 26.444-17.672 3.646 0 7.354 0.702 10.932 2.182 14.597 6.042 21.535 22.775 15.49 37.372l-32.303 78.036c-6.038 14.597-22.775 21.532-37.372 15.49s-21.535-22.775-15.49-37.372l32.299-78.036zM586.952 741.881c3.582-1.484 7.289-2.186 10.939-2.186 11.222 0 21.875 6.648 26.441 17.664l32.334 78.021c6.046 14.597-0.881 31.33-15.478 37.38-14.593 6.046-31.327-0.877-37.38-15.478l-32.334-78.021c-6.046-14.593 0.885-31.33 15.478-37.38zM343.46 705.66l78.006-32.337c3.582-1.488 7.293-2.189 10.943-2.189 11.222 0 21.871 6.648 26.437 17.66 6.049 14.593-0.873 31.33-15.471 37.38l-78.006 32.341c-14.593 6.057-31.33-0.877-37.38-15.471-6.049-14.597 0.877-31.334 15.471-37.384zM549.462 138.626c-6.046 14.597-22.775 21.535-37.372 15.494s-21.535-22.775-15.494-37.372l32.295-78.032c4.562-11.019 15.215-17.675 26.444-17.675 3.646 0 7.35 0.702 10.928 2.182 14.597 6.042 21.535 22.775 15.494 37.372l-32.295 78.032zM437.028 154.119c-14.601 6.049-31.33-0.87-37.384-15.467l-32.345-78.006c-6.053-14.597 0.87-31.33 15.467-37.384 3.585-1.488 7.297-2.189 10.947-2.189 11.222 0 21.871 6.644 26.437 17.656l32.345 78.006c6.049 14.597-0.873 31.33-15.467 37.384zM680.513 190.347l-78.029 32.341c-14.597 6.053-31.33-0.877-37.38-15.471-6.049-14.597 0.877-31.33 15.471-37.38l78.029-32.345c3.582-1.488 7.293-2.189 10.943-2.189 11.222 0 21.871 6.648 26.437 17.66 6.049 14.601-0.877 31.334-15.471 37.384z" />
<glyph unicode="&#xe906;" glyph-name="car" d="M1023.749 300.199l-31.957 213.89c-1.68 11.24-11.335 19.561-22.703 19.561h-199.55l-125.822 156.647c-4.358 5.423-10.937 8.578-17.896 8.578h-368.373c-9.483 0-17.988-5.83-21.406-14.673l-58.223-150.551h-154.869c-12.678 0-22.951-10.276-22.951-22.951v-213.89c0-12.675 10.273-22.951 22.951-22.951h77.465c20.148-45.156 65.445-76.724 118.003-76.724 52.567 0 97.867 31.569 118.021 76.724h332.343c20.148-45.156 65.445-76.724 118.003-76.724s97.852 31.569 118.003 76.724h96.263c6.68 0 13.027 2.91 17.388 7.969 4.355 5.058 6.295 11.766 5.309 18.373zM710.661 533.646h-248.011v119.322h152.166l95.844-119.322zM273.181 652.968h143.57v-119.322h-189.718l46.147 119.322zM218.419 243.032c-37.322 0-68.991 24.683-79.534 58.587-0.196 0.921-0.462 1.815-0.768 2.69-1.922 7.011-2.968 14.38-2.968 21.993 0 45.912 37.355 83.264 83.27 83.264 45.93 0 83.295-37.352 83.295-83.264 0-7.641-1.056-15.041-2.996-22.076-0.263-0.768-0.49-1.552-0.67-2.356-10.466-34.029-42.203-58.838-79.628-58.838zM218.419 455.468c-71.225 0-129.172-57.944-129.172-129.166 0-2.194 0.058-4.376 0.165-6.546h-43.509v167.987h370.849v-167.987h-69.3c0.107 2.167 0.165 4.348 0.165 6.546 0 71.222-57.959 129.166-129.197 129.166zM786.782 243.032c-37.64 0-69.515 25.112-79.781 59.459-0.132 0.514-0.269 1.025-0.438 1.527-1.974 7.097-3.051 14.566-3.051 22.284 0 45.912 37.355 83.264 83.27 83.264s83.27-37.352 83.27-83.264c0-7.828-1.108-15.393-3.134-22.578-0.040-0.119-0.067-0.242-0.104-0.364-9.991-34.791-42.074-60.328-80.032-60.328zM915.793 319.756c0.107 2.167 0.165 4.348 0.165 6.546 0 71.222-57.947 129.166-129.172 129.166s-129.172-57.944-129.172-129.166c0-2.194 0.058-4.376 0.165-6.546h-195.125v167.987h486.66l25.099-167.987h-58.62zM583.524 445.165h-56.781c-12.678 0-22.951-10.276-22.951-22.951s10.273-22.951 22.951-22.951h56.781c12.678 0 22.951 10.276 22.951 22.951s-10.276 22.951-22.951 22.951z" />
<glyph unicode="&#xe907;" glyph-name="cardiogram" d="M1013.275 678.317c-34.696 136.080-149.707 231.122-279.691 231.122-85.494 0-162.839-41.084-221.663-116.725-58.79 75.649-136.101 116.725-221.574 116.725-129.933 0-244.915-95.038-279.615-231.114-18.568-72.814-22.177-189.154 66.079-329.901 81.534-130.026 222.813-250.469 419.9-357.984 4.738-2.581 9.963-3.875 15.197-3.875 5.229 0 10.458 1.295 15.192 3.875 197.146 107.519 338.464 227.962 420.031 357.984 88.299 140.747 84.703 257.086 66.143 329.892zM511.913 54.527c-482.925 269.11-458.835 533.037-439.687 608.115 27.529 107.946 117.224 183.337 218.126 183.337 76.292 0 145.341-44.642 194.421-125.694 5.75-9.494 16.039-15.294 27.136-15.294 0 0 0.004 0 0.004 0 11.097 0 21.386 5.796 27.136 15.285 49.123 81.060 118.214 125.702 194.536 125.702 100.948 0 190.673-75.391 218.198-183.337 19.14-75.074 43.195-338.984-439.869-608.115zM825.483 444.249h-142.595l-53.044 196.317c-3.74 13.843-16.297 23.455-30.63 23.455-0.004 0-0.013 0-0.021 0-14.346-0.008-26.899-9.642-30.622-23.497l-72.95-271.521-72.95 271.521c-3.689 13.733-16.064 23.332-30.283 23.497-0.118 0-0.241 0-0.364 0-14.067 0-26.476-9.274-30.444-22.803l-36.925-125.952h-143.141c-17.524 0-31.73-14.202-31.73-31.73s14.207-31.73 31.73-31.73h166.905c14.088 0 26.484 9.286 30.448 22.803l11.829 40.352 74.282-276.48c3.723-13.86 16.292-23.497 30.643-23.497 14.355 0 26.92 9.633 30.643 23.497l73.034 271.839 28.663-106.080c3.74-13.839 16.292-23.455 30.63-23.455h166.888c17.524 0 31.73 14.202 31.73 31.73 0.004 17.528-14.198 31.734-31.726 31.734z" />
<glyph unicode="&#xe908;" glyph-name="charity" d="M805.255 165.87l-315.577 43.703-123.662 123.648c-0.004 0.004-0.007 0.011-0.015 0.018-4.579 4.59-4.582 12.048-0.036 16.605 2.992 2.988 6.492 3.435 8.311 3.435 1.808 0 5.287-0.443 8.246-3.41 0.007-0.007 0.015-0.011 0.022-0.018v-0.004l93.496-93.492c0.004-0.004 0.007-0.004 0.011-0.011 0.004-0.004 0.007-0.007 0.011-0.011 0.265-0.269 0.563-0.49 0.835-0.755 0.407-0.374 0.81-0.763 1.231-1.107 13.725-12.683 31.205-19.103 48.736-19.103 18.409 0 36.837 7.001 50.871 21.002 28.003 28.053 27.995 73.674-0.018 101.691l-256.667 256.674c-5.109 5.109-12.033 7.977-19.259 7.977h-274.557c-15.043 0-27.233-12.193-27.233-27.233s12.189-27.233 27.233-27.233h263.279l248.686-248.686c6.797-6.801 6.79-17.883 0.022-24.662-6.801-6.79-17.886-6.79-24.687 0-0.011 0.011-0.025 0.022-0.036 0.033l-93.405 93.398c-0.004 0.004-0.007 0.011-0.015 0.018s-0.015 0.011-0.022 0.018v0.004c-0.011 0.011-0.025 0.022-0.036 0.033-12.476 12.476-29.077 19.346-46.742 19.346-17.68 0-34.302-6.881-46.833-19.397-25.083-25.13-25.657-65.591-1.859-91.52 0.16-0.196 0.349-0.374 0.512-0.563 0.461-0.49 0.864-1.009 1.34-1.489 0.007-0.007 0.015-0.015 0.025-0.022l130.173-130.162c4.194-4.194 9.64-6.903 15.519-7.72l324.39-44.92c6.111-0.904 17.661-4.985 17.661-14.005 0.007-4.92-2.498-8.159-3.991-9.655-1.5-1.5-4.753-4.016-9.695-4.016h-362.802l-288.751 288.787c-5.105 5.105-12.033 7.977-19.259 7.977h-103.474c-15.043 0-27.233-12.193-27.233-27.233s12.189-27.233 27.233-27.233h92.196l288.751-288.787c5.105-5.105 12.033-7.977 19.259-7.977h374.080c18.224 0 35.348 7.099 48.227 19.989 12.865 12.879 19.942 30 19.92 48.177 0.004 34.371-26.387 62.276-64.411 67.89zM857.68 866.188c-41.354 0-82.214-15.363-113.909-42.044-31.692 26.685-72.541 42.044-113.88 42.044-93.263 0-166.32-73.056-166.32-166.323 0-110.743 94.799-194.747 226.116-310.875l34.858-34.756c5.316-5.301 12.273-7.948 19.23-7.948 6.953 0 13.907 2.647 19.219 7.937l34.898 34.764c131.306 116.121 226.108 200.132 226.108 310.879 0 93.267-73.060 166.323-166.32 166.323zM761.2 429.251c-0.403-0.356-0.799-0.726-1.176-1.107l-16.242-16.176-16.216 16.169c-0.385 0.385-0.781 0.759-1.187 1.118-133.059 117.671-208.342 188.258-208.342 270.614 0 63.768 48.086 111.858 111.854 111.858 34.745 0 70.417-16.659 93.085-43.474 5.174-6.118 12.785-9.651 20.799-9.651s15.624 3.529 20.799 9.651c22.672 26.815 58.351 43.474 93.114 43.474 63.768 0 111.854-48.089 111.854-111.858-0.007-82.366-75.29-152.95-208.342-270.618z" />
<glyph unicode="&#xe909;" glyph-name="cocktail" d="M956.694 904.264c8.507 10.075 10.391 24.17 4.834 36.129-5.552 11.959-17.538 19.607-30.725 19.607h-837.606c-13.187 0-25.173-7.649-30.73-19.607-5.552-11.959-3.673-26.054 4.834-36.129l410.836-486.766v-413.732h-141.835c-18.717 0-33.883-15.171-33.883-33.883s15.166-33.883 33.883-33.883h351.432c18.717 0 33.883 15.171 33.883 33.883s-15.166 33.883-33.883 33.883h-141.831v413.732l410.791 486.766zM857.868 892.234l-345.848-409.815-345.884 409.815h691.732z" />
<glyph unicode="&#xe90a;" glyph-name="coding" d="M936.114 920.405h-848.193c-48.479 0-87.92-39.424-87.92-87.882v-644.165c0-48.471 39.441-87.908 87.92-87.908h278.334v-60.695h-108.037c-17.721 0-32.080-14.363-32.080-32.080 0-17.721 14.359-32.080 32.080-32.080h507.564c17.721 0 32.080 14.359 32.080 32.080 0 17.717-14.359 32.080-32.080 32.080h-108.045v60.695h278.377c48.462 0 87.886 39.437 87.886 87.908v644.165c0 48.458-39.42 87.882-87.886 87.882zM87.92 856.245h848.198c13.084 0 23.726-10.642 23.726-23.722v-48.137h-895.685v48.137c0 13.080 10.659 23.722 23.761 23.722zM959.84 300.65h-895.68v419.576h895.68v-419.576zM593.577 39.755h-163.163v60.695h163.163v-60.695zM936.114 164.61h-848.193c-13.101 0-23.761 10.651-23.761 23.748v48.133h895.68v-48.133c0-13.097-10.642-23.748-23.726-23.748zM421.282 387.827c8.208 0 16.421 3.131 22.683 9.393l181.093 181.068c12.533 12.528 12.533 32.841 0.004 45.37-12.528 12.533-32.841 12.528-45.365 0.004l-181.093-181.068c-12.533-12.528-12.533-32.841-0.004-45.365 6.262-6.266 14.47-9.402 22.683-9.402zM309.084 397.228c6.266-6.266 14.474-9.397 22.687-9.397 8.208 0 16.421 3.131 22.683 9.393 12.533 12.528 12.533 32.841 0.004 45.365l-66.448 66.457 66.833 66.829c12.528 12.533 12.528 32.841 0 45.37-12.533 12.524-32.841 12.524-45.37 0l-89.516-89.516c-12.528-12.533-12.528-32.841 0-45.365l89.127-89.135zM669.205 397.228c6.266-6.266 14.474-9.397 22.687-9.397 8.208 0 16.421 3.131 22.683 9.393l89.516 89.512c6.018 6.018 9.397 14.175 9.397 22.687 0 8.508-3.379 16.664-9.397 22.687l-89.148 89.144c-12.528 12.528-32.841 12.528-45.365-0.004-12.528-12.528-12.528-32.841 0.004-45.365l66.461-66.457-66.829-66.825c-12.537-12.537-12.537-32.85-0.009-45.374z" />
<glyph unicode="&#xe90b;" glyph-name="crop" d="M990.135 242.795h-205.205v430.248l133.526 133.521c13.223 13.228 13.223 34.664 0 47.887-13.223 13.219-34.664 13.219-47.887 0l-133.53-133.53h-430.248v205.219c0 18.704-15.16 33.86-33.86 33.86s-33.86-15.156-33.86-33.86v-205.214h-205.205c-18.7 0-33.86-15.156-33.86-33.86s15.16-33.86 33.86-33.86h205.205v-430.253l-133.521-133.521c-13.223-13.228-13.223-34.664 0-47.887 6.609-6.609 15.278-9.914 23.941-9.914s17.332 3.305 23.941 9.914l133.53 133.53h430.248v-205.214c0-18.704 15.16-33.86 33.86-33.86s33.86 15.156 33.86 33.86v205.214h205.205c18.7 0 33.86 15.156 33.86 33.86 0 18.7-15.156 33.86-33.86 33.86zM306.79 653.205h362.533l-362.533-362.533v362.533zM717.21 605.318v-362.528h-362.528l362.528 362.528z" />
<glyph unicode="&#xe90c;" glyph-name="customizable" d="M1013.683 157.871l-110.386 110.386c-0.080 0.080-0.141 0.169-0.221 0.249s-0.169 0.141-0.244 0.225l-171.799 171.794 282.509 282.509c13.754 13.754 13.754 36.055 0.005 49.805l-176.697 176.739c-6.607 6.602-15.562 10.317-24.907 10.317v0c-1.169 0-2.329-0.056-3.48-0.174-8.063-0.798-15.642-4.362-21.423-10.138l-176.711-176.702c-0.023-0.023-0.038-0.047-0.061-0.070l-105.789-105.784-61.389 61.394c-0.009 0.009-0.014 0.014-0.023 0.023s-0.014 0.014-0.023 0.023l-110.292 110.297c-0.103 0.108-0.188 0.221-0.296 0.324-0.103 0.103-0.216 0.188-0.319 0.291l-110.288 110.297c-6.602 6.607-15.562 10.317-24.902 10.317s-18.3-3.71-24.907-10.317l-161.722-161.755c-13.754-13.754-13.75-36.055 0-49.805l282.627-282.622-282.627-282.622c-6.607-6.612-10.317-15.567-10.317-24.907v-176.744c0-9.34 3.71-18.3 10.317-24.907 6.607-6.602 15.567-10.312 24.907-10.312l176.73 0.033c9.34 0 18.29 3.71 24.898 10.312l282.603 282.608 282.641-282.636c6.875-6.875 15.891-10.312 24.902-10.312s18.023 3.437 24.902 10.312l161.778 161.741c6.607 6.602 10.317 15.562 10.317 24.907 0.005 9.34-3.705 18.295-10.312 24.902zM811.91 621.051l-126.874 126.916 126.897 126.897 126.888-126.921-126.911-126.892zM85.028 763.026l111.917 111.936 60.788-60.793-55.975-55.989c-13.75-13.759-13.75-36.060 0.005-49.805 6.879-6.879 15.886-10.312 24.902-10.312 9.011 0 18.032 3.437 24.907 10.317l55.966 55.98 60.812-60.812-77.308-77.308c-13.754-13.754-13.754-36.055 0-49.809 6.875-6.879 15.891-10.317 24.902-10.317s18.028 3.437 24.902 10.312l77.318 77.308 36.511-36.506-111.917-111.922-257.729 257.72zM197.359 6.471l-126.921-0.023v126.93l564.789 564.784 126.888-126.93-564.756-564.761zM827.003 21.033l-257.734 257.734 111.95 111.955 36.515-36.515-77.327-77.327c-13.754-13.759-13.754-36.055 0-49.809 6.875-6.875 15.891-10.312 24.902-10.312s18.028 3.437 24.902 10.312l77.327 77.327 60.807-60.802-55.97-55.975c-13.754-13.754-13.754-36.055 0-49.805 6.875-6.875 15.891-10.312 24.902-10.312s18.028 3.437 24.902 10.317l55.97 55.97 60.812-60.807-111.959-111.95z" />
<glyph unicode="&#xe90d;" glyph-name="disabled-sign" d="M609.476 86.205c-50.709-50.714-118.126-78.638-189.846-78.638-148.011 0-268.432 120.421-268.432 268.446 0 71.725 27.919 139.156 78.619 189.861 13.974 13.974 13.969 36.631-0.005 50.604-13.974 13.979-36.631 13.974-50.604-0.005-64.211-64.22-99.572-149.614-99.572-240.455 0-187.48 152.519-340.009 339.994-340.009 90.832 0 176.225 35.371 240.451 99.606 13.974 13.974 13.969 36.631-0.005 50.6-13.974 13.959-36.631 13.964-50.6-0.010zM908.579 164.671h-101.786l-63.018 174.847c-5.114 14.193-18.578 23.649-33.663 23.649h-265.316v160.663h246.405c19.761 0 35.781 16.016 35.781 35.781s-16.020 35.781-35.781 35.781h-246.405v110.421c0 19.766-16.020 35.781-35.781 35.781s-35.781-16.016-35.781-35.781v-378.423c0-19.766 16.020-35.781 35.781-35.781h275.955l63.018-174.847c5.114-14.193 18.578-23.649 33.663-23.649h126.924c19.761 0 35.781 16.016 35.781 35.781s-16.011 35.777-35.777 35.777zM410.364 786.16c48.009 0 86.93 38.901 86.93 86.944-0.005 47.961-38.921 86.896-86.93 86.896s-86.92-38.935-86.92-86.901c0-48.038 38.911-86.939 86.92-86.939z" />
<glyph unicode="&#xe90e;" glyph-name="download" d="M856.723 698.166h-210.075c-20.078 0-36.348-16.269-36.348-36.348 0-20.074 16.269-36.348 36.348-36.348h173.732v-616.776h-616.756v616.776h173.713c20.078 0 36.348 16.269 36.348 36.348s-16.269 36.348-36.348 36.348h-210.060c-20.074 0-36.348-16.269-36.348-36.348v-689.471c0-20.078 16.274-36.348 36.348-36.348h689.452c20.078 0 36.348 16.269 36.348 36.348v689.471c-0.005 20.074-16.274 36.348-36.352 36.348zM397.682 468.25c-14.195 14.195-37.21 14.2-51.4 0.005-14.2-14.2-14.2-37.21-0.005-51.405l140.006-140.011c6.819-6.819 16.061-10.647 25.705-10.647 9.639 0 18.881 3.829 25.7 10.643l140.016 140.011c14.2 14.195 14.2 37.21 0.005 51.4-14.195 14.195-37.21 14.2-51.4 0.005l-77.968-77.963v533.365c0 20.078-16.269 36.348-36.348 36.348s-36.348-16.269-36.348-36.348v-533.36l-77.963 77.958z" />
<glyph unicode="&#xe90f;" glyph-name="ebook" d="M945.265 960h-766.294c-73.796 0-133.841-60.013-133.904-133.805 0-0.018-0.004-0.036-0.004-0.058v-856.469c0-18.596 15.076-33.672 33.672-33.672h766.343c18.596 0 33.672 15.076 33.672 33.672v66.519h66.51c18.596 0 33.672 15.076 33.672 33.672v856.469c0.004 18.596-15.072 33.672-33.668 33.672zM811.41 3.345h-699.003v789.124h698.999v-789.124zM911.593 103.536h-32.837v722.605c0 18.596-15.076 33.672-33.672 33.672h-723.4c11.592 19.615 32.9 32.842 57.288 32.842h732.622v-789.119zM669.537 663.319h-304.403c-18.596 0-33.672-15.076-33.672-33.672v-275.319h-44.703c-61.787 0-112.053-50.266-112.053-112.048 0-61.787 50.266-112.057 112.053-112.057 61.782 0 112.048 50.271 112.048 112.057v201.446h237.058v-89.398h-44.694c-61.787 0-112.057-50.266-112.057-112.048 0-61.787 50.271-112.057 112.057-112.057 61.778 0 112.039 50.271 112.039 112.057v387.367c0 18.596-15.076 33.672-33.672 33.672zM286.759 197.567c-24.653 0-44.708 20.060-44.708 44.712 0 24.648 20.055 44.703 44.708 44.703h44.703v-44.703c0-24.653-20.055-44.712-44.703-44.712zM398.807 595.974h237.058v-84.904h-237.058v84.904zM591.171 197.567c-24.653 0-44.712 20.060-44.712 44.712 0 24.648 20.060 44.703 44.712 44.703h44.694v-44.703c0-24.653-20.051-44.712-44.694-44.712z" />
<glyph unicode="&#xe910;" glyph-name="edit2" d="M1013.673 708.295l-241.378 241.383c-6.609 6.609-15.577 10.322-24.926 10.322s-18.317-3.713-24.926-10.322l-704.539-704.539c-6.346-6.355-10.035-14.881-10.308-23.854l-7.572-248.96c-0.296-9.716 3.436-19.126 10.308-26.002 6.623-6.618 15.591-10.322 24.926-10.322 0.357 0 0.714 0.005 1.076 0.019l248.951 7.582c8.973 0.273 17.504 3.958 23.854 10.303l704.539 704.534c13.763 13.767 13.763 36.089-0.005 49.857zM269.162 13.645l-197.529-6.016 6.012 197.538 428.317 428.322 191.54-191.507-428.34-428.336zM747.359 491.833l-191.545 191.503 191.55 191.554 191.521-191.526-191.526-191.531z" />
<glyph unicode="&#xe911;" glyph-name="energy" d="M847.337 526.82c-5.414 13.354-18.39 22.096-32.806 22.096h-152.575l126.236 364.084c5.4 15.568-0.661 32.802-14.609 41.572-13.953 8.775-32.108 6.755-43.795-4.862l-545.274-541.894c-10.168-10.106-13.241-25.348-7.77-38.608 5.461-13.259 18.39-21.907 32.731-21.907h151.051l-137.442-363.376c-5.872-15.511-0.179-33.019 13.684-42.12 5.938-3.899 12.688-5.806 19.415-5.806 8.964 0 17.866 3.399 24.668 10.002l558.339 542.111c10.342 10.040 13.566 25.348 8.147 38.707zM345.509 107.461l99.368 262.719c4.111 10.88 2.629 23.082-3.984 32.651-6.608 9.563-17.498 15.275-29.129 15.275h-116.446l375.847 373.52-92.4-266.519c-3.753-10.824-2.039-22.794 4.602-32.127 6.642-9.337 17.39-14.874 28.841-14.874h115.034l-381.733-370.645z" />
<glyph unicode="&#xe912;" glyph-name="fingerprint" d="M111.044 222.080c-18.596 0-33.673-15.076-33.673-33.673v-218.734c0-18.596 15.076-33.673 33.673-33.673 18.601 0 33.673 15.076 33.673 33.673v218.734c0 18.596-15.076 33.673-33.673 33.673zM512.011 892.654c66.475 0 131.562-17.927 188.231-51.838 15.974-9.554 36.636-4.36 46.186 11.601 9.55 15.956 4.355 36.636-11.601 46.186-67.126 40.169-144.169 61.397-222.815 61.397-239.661 0-434.64-194.984-434.64-434.649v-165.168c0-18.596 15.076-33.673 33.673-33.673 18.601 0 33.673 15.076 33.673 33.673v165.168c0 202.531 164.768 367.303 367.294 367.303zM888.298 743.044c-9.316 16.091-29.915 21.582-46.015 12.266-16.091-9.321-21.587-29.919-12.266-46.015 32.232-55.65 49.266-119.256 49.266-183.943v-555.683c0-18.596 15.072-33.673 33.673-33.673 18.596 0 33.673 15.076 33.673 33.673v555.683c0 76.523-20.168 151.797-58.33 217.693zM293.519 370.299c0 18.596-15.072 33.673-33.673 33.673s-33.673-15.076-33.673-33.673v-156.3c0-18.596 15.072-33.673 33.673-33.673s33.673 15.076 33.673 33.673v156.3zM512.011 808.427c-157.611 0-285.838-128.231-285.838-285.846 0-18.596 15.072-33.673 33.673-33.673s33.673 15.076 33.673 33.673c0 120.481 98.015 218.501 218.492 218.501 120.454 0 218.447-98.019 218.447-218.501v-156.309c0-18.596 15.072-33.673 33.673-33.673s33.673 15.076 33.673 33.673v156.309c0 157.616-128.208 285.846-285.793 285.846zM608.311 47.646c-30.077-14.771-62.479-22.264-96.3-22.264-65.33 0-126.686 28.855-168.333 79.167-11.862 14.322-33.080 16.32-47.42 4.463-14.322-11.862-16.32-33.085-4.458-47.411 54.496-65.819 134.759-103.569 220.211-103.569 44.21 0 86.598 9.81 125.995 29.161 16.693 8.198 23.575 28.375 15.382 45.068-8.198 16.697-28.375 23.593-45.077 15.386zM764.131 205.881c-18.601 0-33.673-15.076-33.673-33.673v-202.535c0-18.596 15.072-33.673 33.673-33.673s33.673 15.076 33.673 33.673v202.535c0 18.596-15.076 33.673-33.673 33.673zM618.144 389.2c18.596 0 33.673 15.076 33.673 33.673v68.953c0 77.070-62.717 139.774-139.81 139.774-77.084 0-139.801-62.703-139.801-139.774 0-18.596 15.072-33.673 33.673-33.673s33.673 15.076 33.673 33.673c0 39.936 32.506 72.428 72.455 72.428 39.954 0 72.464-32.492 72.464-72.428v-68.953c0-18.596 15.076-33.673 33.673-33.673zM372.211 262.321c0-77.079 62.717-139.792 139.801-139.792 77.093 0 139.81 62.708 139.81 139.792 0 18.596-15.076 33.673-33.673 33.673-18.601 0-33.673-15.076-33.673-33.673 0-39.945-32.506-72.446-72.464-72.446-39.949 0-72.455 32.497-72.455 72.446v68.953c0 18.596-15.072 33.673-33.673 33.673s-33.673-15.076-33.673-33.673v-68.953z" />
<glyph unicode="&#xe913;" glyph-name="folder" d="M988.467 760.084h-81.474v124.44c0 19.624-15.909 35.533-35.533 35.533h-835.928c-19.624 0-35.533-15.909-35.533-35.533v-873.043c0-19.624 15.909-35.533 35.533-35.533h952.935c19.624 0 35.533 15.909 35.533 35.533v713.070c0 19.624-15.909 35.533-35.533 35.533zM835.923 760.084h-134.257v88.908h134.257v-88.908zM630.606 760.084h-134.238v88.908h134.238v-88.908zM425.303 760.084h-134.228v88.908h134.228v-88.908zM952.935 47.009h-881.869v801.982h148.944v-124.44c0-19.624 15.909-35.533 35.533-35.533h697.393v-642.009z" />
<glyph unicode="&#xe914;" glyph-name="full-battery" d="M992.688 689.932h-842.476c-17.293 0-31.312-14.020-31.312-31.312v-421.24c0-17.293 14.020-31.312 31.312-31.312h842.471c17.293 0 31.312 14.020 31.312 31.312v421.24c0.004 17.293-14.015 31.312-31.308 31.312zM961.375 268.692h-779.851v358.615h779.847v-358.615zM754.279 534.418h114.186v-172.845h-114.186v172.845zM274.418 534.418h114.178v-172.845h-114.178v172.845zM434.374 534.418h114.173v-172.845h-114.173v172.845zM594.327 534.418h114.178v-172.845h-114.178v172.845zM31.312 584.714c-17.293 0-31.312-14.020-31.312-31.312v-210.804c0-17.293 14.020-31.312 31.312-31.312s31.312 14.020 31.312 31.312v210.804c0 17.293-14.020 31.312-31.312 31.312z" />
<glyph unicode="&#xe915;" glyph-name="hand" d="M821.784 788.589c-10.128 0-19.899-1.541-29.114-4.375v33.475c0 54.793-44.567 99.375-99.351 99.375-14.709 0-28.636-3.293-41.213-9.050-16.859 30.945-49.692 51.987-87.35 51.987-51.725 0-94.297-39.733-98.911-90.282-9.336 2.918-19.262 4.492-29.544 4.492-54.798 0-99.38-44.6-99.38-99.417v-267.451l-22.897 31.325c-36.112 54.512-107.732 72.468-160.459 39.78-24.635-15.613-41.761-40.22-48.221-69.287-6.731-30.294-0.993-63.141 15.744-90.554 7.87-16.962 59.159-125.326 135.164-235.349 113.339-164.062 222.846-247.252 325.477-247.252 278.656 0 339.684 242.010 339.684 335.258v417.951c-0.005 54.798-44.694 99.375-99.628 99.375zM851.141 271.262c0-2.647-3.082-264.992-269.418-264.992-160.094 0-341.361 320.239-397.691 443.631-0.684 1.494-1.471 2.951-2.356 4.338-7.809 12.212-10.629 26.673-7.739 39.682 1.682 7.565 6.038 18.077 16.948 24.996 20.49 12.709 49.566 3.982 64.818-19.436 0.347-0.529 0.703-1.054 1.077-1.565l86.91-118.899c8.971-12.273 24.809-17.379 39.265-12.667 14.451 4.722 24.228 18.199 24.228 33.4v375.042c0 16.077 13.060 29.151 29.114 29.151 16.039 0 29.085-13.074 29.085-29.151v-267.891c0-19.407 15.73-35.133 35.133-35.133s35.133 15.726 35.133 35.133v353.728c0 16.049 13.055 29.104 29.104 29.104 16.067 0 29.137-13.055 29.137-29.104v-353.728c0-19.407 15.73-35.133 35.133-35.133s35.133 15.726 35.133 35.133v310.786c0 16.053 13.084 29.109 29.16 29.109 16.039 0 29.085-13.055 29.085-29.109v-353.672c0-19.407 15.73-35.133 35.133-35.133s35.133 15.726 35.133 35.133v225.198c0 16.053 13.060 29.109 29.114 29.109 16.189 0 29.362-13.055 29.362-29.109v-417.951z" />
<glyph unicode="&#xe916;" glyph-name="heart" d="M1013.283 678.411c-34.675 135.997-149.604 230.98-279.487 230.98-85.605 0-163.040-41.23-221.881-117.144-58.795 75.917-136.189 117.144-221.777 117.144-129.829 0-244.729-94.979-279.408-230.972-18.561-72.79-22.168-189.099 66.084-329.833 81.568-130.079 222.915-250.58 420.117-358.157 4.666-2.548 9.821-3.82 14.979-3.82 5.15 0 10.309 1.272 14.975 3.816 197.26 107.577 338.653 228.082 420.255 358.157 88.286 140.734 84.7 257.044 66.143 329.829zM511.906 53.598c-483.854 269.562-459.754 534.116-440.563 609.362 27.606 108.265 117.581 183.878 218.795 183.878 76.539 0 145.801-44.767 195.017-126.055 5.667-9.358 15.809-15.075 26.751-15.075h0.004c10.938 0 21.076 5.713 26.747 15.067 49.266 81.293 118.566 126.059 195.138 126.059 101.268 0 191.272-75.613 218.874-183.878 19.183-75.242 43.336-339.758-440.763-609.358z" />
<glyph unicode="&#xe917;" glyph-name="help" d="M609.957 315.135l-239.040 33.104-93.668 93.659c-0.006 0.003-0.011 0.008-0.014 0.014-3.468 3.477-3.471 9.126-0.028 12.578 2.266 2.264 4.918 2.602 6.296 2.602 1.37 0 4.005-0.336 6.246-2.583 0.006-0.006 0.011-0.008 0.014-0.014l70.823-70.82c0.003-0.003 0.006-0.003 0.008-0.006s0.006-0.008 0.008-0.008c0.204-0.204 0.426-0.371 0.633-0.572 0.305-0.283 0.608-0.578 0.93-0.839 10.397-9.607 23.637-14.47 36.916-14.47 13.945 0 27.903 5.303 38.533 15.908 21.211 21.25 21.206 55.806-0.014 77.028l-194.418 194.418c-3.87 3.87-9.115 6.043-14.588 6.043h-207.966c-11.395 0-20.628-9.236-20.628-20.628s9.233-20.628 20.628-20.628h199.426l188.372-188.372c5.149-5.152 5.143-13.546 0.019-18.681-5.157-5.143-13.551-5.143-18.703 0-0.008 0.008-0.019 0.017-0.028 0.025l-70.751 70.749c-0.006 0.003-0.011 0.008-0.014 0.014-0.006 0.006-0.011 0.008-0.014 0.014l-0.003 0.003c-0.008 0.008-0.019 0.017-0.028 0.025-9.453 9.45-22.022 14.654-35.406 14.654-13.392 0-25.983-5.212-35.475-14.693-18.997-19.036-19.432-49.683-1.405-69.324 0.118-0.149 0.259-0.281 0.385-0.426 0.347-0.371 0.652-0.765 1.015-1.128 0.006-0.008 0.014-0.011 0.019-0.017 0-0.003 0-0.003 0.003-0.003l98.599-98.591c3.177-3.177 7.302-5.229 11.755-5.845l245.716-34.025c4.629-0.685 13.378-3.776 13.378-10.608 0.006-3.727-1.892-6.18-3.023-7.313-1.136-1.136-3.6-3.042-7.344-3.042h-274.812l-218.72 218.748c-3.867 3.867-9.115 6.043-14.588 6.043h-78.375c-11.395 0-20.628-9.236-20.628-20.628s9.233-20.628 20.628-20.628h69.835l218.72-218.748c3.867-3.867 9.115-6.043 14.588-6.043h283.355c13.804 0 26.775 5.377 36.531 15.141 9.745 9.756 15.105 22.724 15.089 36.492 0.003 26.030-19.987 47.167-48.789 51.422zM1003.372 276.082h-199.426l-188.372 188.372c-5.149 5.152-5.143 13.546-0.019 18.683 5.157 5.143 13.551 5.143 18.703 0 0.008-0.008 0.019-0.017 0.028-0.025l70.751-70.749c0.006-0.003 0.011-0.008 0.014-0.014 0.006-0.006 0.011-0.008 0.014-0.014l0.003-0.003c0.008-0.008 0.019-0.014 0.028-0.025 9.45-9.45 22.022-14.657 35.406-14.657 13.392 0 25.983 5.212 35.475 14.693 18.997 19.036 19.432 49.681 1.405 69.324-0.118 0.149-0.259 0.281-0.385 0.426-0.347 0.371-0.652 0.765-1.015 1.128-0.006 0.008-0.014 0.011-0.019 0.017l-98.602 98.594c-3.177 3.177-7.302 5.229-11.755 5.845l-245.716 34.025c-4.629 0.685-13.378 3.776-13.378 10.608-0.006 3.727 1.892 6.18 3.023 7.313 1.136 1.136 3.6 3.042 7.344 3.042h274.812l218.72-218.748c3.867-3.867 9.115-6.043 14.588-6.043h78.378c11.395 0 20.628 9.236 20.628 20.628s-9.233 20.628-20.628 20.628h-69.835l-218.72 218.748c-3.867 3.867-9.115 6.043-14.588 6.043h-283.36c-13.804 0-26.775-5.377-36.531-15.141-9.745-9.756-15.105-22.724-15.089-36.492 0-26.035 19.99-47.172 48.792-51.427l239.040-33.104 93.668-93.659c0.006-0.003 0.011-0.008 0.014-0.014 3.468-3.477 3.471-9.126 0.028-12.578-2.266-2.264-4.918-2.602-6.296-2.602-1.37 0-4.005 0.336-6.246 2.583-0.006 0.006-0.011 0.008-0.014 0.014h-0.003l-70.82 70.817c-0.003 0.003-0.006 0.006-0.008 0.006-0.003 0.003-0.006 0.006-0.008 0.008-0.193 0.193-0.404 0.352-0.602 0.542-0.316 0.294-0.63 0.597-0.963 0.869-21.316 19.693-54.692 19.261-75.449-1.441-21.211-21.25-21.206-55.803 0.014-77.028l194.415-194.418c3.87-3.87 9.118-6.043 14.588-6.043h207.969c11.395 0 20.628 9.236 20.628 20.628 0.003 11.403-9.233 20.639-20.625 20.639z" />
<glyph unicode="&#xe918;" glyph-name="idea" d="M512.013 728.643c-146.072 0-264.913-118.842-264.913-264.913 0-59.781 19.602-116.266 56.66-163.322 7.315-9.314 15.001-18.229 23.139-27.668l0.447-0.519c24.896-28.884 50.637-58.761 60.25-93.941 2.173-8.062 2.482-23.519 2.356-35.426v-20.237c0-18.52 15.015-33.534 33.534-33.534h175.595c18.52 0 33.534 15.015 33.534 33.534v20.474c-0.112 15.551 0.693 26.899 2.316 32.788 9.667 34.947 38.194 68.504 63.59 98.372l1.095 1.288c7.328 8.612 14.254 16.745 20.559 24.762 37.111 47.082 56.727 103.595 56.727 163.429-0.004 146.072-118.833 264.913-264.891 264.913zM667.475 341.785c-5.522-7.024-12.032-14.675-18.927-22.772l-1.35-1.587c-29.667-34.894-63.291-74.442-76.919-123.706-1.927-6.993-4.069-17.456-4.614-37.568h-108.705c-0.465 21.359-2.643 32.314-4.632 39.691-13.637 49.917-47.203 88.866-74.178 120.17l-0.452 0.528c-7.624 8.84-14.822 17.192-21.221 25.33-27.677 35.144-42.307 77.286-42.307 121.86 0 109.090 88.755 197.845 197.845 197.845 109.076 0 197.818-88.755 197.818-197.845 0-44.623-14.639-86.778-42.356-121.945zM599.078 79.563h-175.591c-18.52 0-33.534-15.015-33.534-33.534s15.015-33.534 33.534-33.534h175.595c18.52 0 33.534 15.015 33.534 33.534s-15.019 33.534-33.539 33.534zM555.179 3.069h-87.793c-18.52 0-33.534-15.015-33.534-33.534s15.015-33.534 33.534-33.534h87.793c18.52 0 33.534 15.015 33.534 33.534s-15.015 33.534-33.534 33.534zM974.736 497.264h-115.685c-18.52 0-33.534-15.015-33.534-33.534s15.015-33.534 33.534-33.534h115.685c18.52 0 33.534 15.015 33.534 33.534s-15.015 33.534-33.534 33.534zM198.497 463.73c0 18.52-15.015 33.534-33.534 33.534h-115.698c-18.52 0-33.534-15.015-33.534-33.534s15.015-33.534 33.534-33.534h115.698c18.52 0 33.534 15.015 33.534 33.534zM512.004 777.21c18.52 0 33.534 15.015 33.534 33.534v115.721c0 18.52-15.015 33.534-33.534 33.534s-33.534-15.015-33.534-33.534v-115.721c0-18.52 15.015-33.534 33.534-33.534zM781.099 242.054c-13.096 13.096-34.326 13.101-47.427 0.004-13.096-13.096-13.101-34.326-0.004-47.427l81.806-81.829c6.55-6.55 15.131-9.823 23.716-9.823 8.58 0 17.161 3.273 23.711 9.819 13.096 13.096 13.101 34.326 0.004 47.427l-81.806 81.829zM242.866 685.429c6.55-6.55 15.131-9.828 23.716-9.828 8.58 0 17.161 3.273 23.707 9.819 13.101 13.096 13.101 34.326 0.009 47.422l-81.775 81.806c-13.096 13.101-34.326 13.101-47.422 0.009-13.101-13.096-13.101-34.326-0.009-47.422l81.775-81.806zM242.901 242.054l-81.811-81.829c-13.096-13.096-13.092-34.33 0.004-47.422 6.546-6.546 15.131-9.819 23.711-9.819s17.165 3.273 23.716 9.823l81.811 81.829c13.096 13.096 13.092 34.33-0.004 47.422s-34.33 13.092-47.427-0.004zM757.401 675.605c8.58 0 17.165 3.273 23.716 9.823l81.788 81.802c13.096 13.096 13.092 34.33-0.004 47.422-13.096 13.096-34.33 13.096-47.422-0.004l-81.788-81.802c-13.096-13.096-13.092-34.33 0.004-47.422 6.541-6.55 15.122-9.819 23.707-9.819z" />
<glyph unicode="&#xe919;" glyph-name="image" d="M990.942 854.502h-957.885c-18.257 0-33.058-14.797-33.058-33.058v-746.885c0-18.261 14.801-33.058 33.058-33.058h957.885c18.257 0 33.058 14.797 33.058 33.058v746.885c0 18.257-14.801 33.058-33.058 33.058zM957.885 788.383v-630.699l-264.438 281.205c-6.246 6.642-14.96 10.411-24.075 10.411-0.004 0-0.004 0-0.004 0-9.115 0-17.825-3.769-24.075-10.402l-112.925-120.008-151.399 199.628c-6.25 8.242-15.995 13.082-26.34 13.082-0.009 0-0.018 0-0.026 0-10.354-0.009-20.103-4.866-26.345-13.126l-262.142-346.836v616.744h891.77zM914.218 107.613h-813.617l254.072 336.169 148.636-195.987c5.88-7.753 14.871-12.518 24.586-13.033 9.701-0.485 19.165 3.27 25.829 10.358l115.631 122.882 244.864-260.388zM684.234 511.819c59.931 0 108.684 48.753 108.684 108.676 0 59.931-48.753 108.684-108.684 108.684-59.927 0-108.676-48.758-108.676-108.684 0-59.922 48.753-108.676 108.676-108.676zM684.234 663.068c23.475 0 42.569-19.098 42.569-42.569 0-23.466-19.094-42.561-42.569-42.561-23.471 0-42.561 19.094-42.561 42.561 0 23.471 19.094 42.569 42.561 42.569z" />
<glyph unicode="&#xe91a;" glyph-name="key" d="M850.416 785.718c-23.239 23.258-54.149 36.072-87.029 36.072-32.875 0-63.785-12.814-87.024-36.068-23.244-23.248-36.044-54.159-36.044-87.024 0-32.875 12.805-63.78 36.039-87.005 23.239-23.248 54.14-36.053 87.014-36.053 32.87 0 63.78 12.8 87.024 36.039 23.253 23.239 36.058 54.144 36.058 87.019 0 32.86-12.8 63.771-36.039 87.019zM799.718 662.388c-9.712-9.708-22.622-15.051-36.35-15.051-13.718 0-26.609 5.339-36.321 15.051-9.703 9.693-15.037 22.589-15.037 36.311 0 13.718 5.344 26.623 15.051 36.34 9.703 9.708 22.603 15.056 36.321 15.056s26.613-5.348 36.326-15.061c9.703-9.708 15.046-22.613 15.046-36.335 0.005-13.722-5.334-26.618-15.037-36.311zM929.721 865.018c-125.734 125.715-330.3 125.734-456.025 0.019-91.689-91.732-119.024-228.364-71.686-347.192l-124.1-124.090h-113.613c-19.802 0-35.848-16.045-35.848-35.848v-92.611h-92.602c-19.802 0-35.848-16.045-35.848-35.848v-256.913c0-19.802 16.045-35.848 35.848-35.848h128.454c9.502 0 18.612 3.771 25.337 10.487l391.141 390.825c119.296-48.375 256.612-21.298 348.946 71.036 125.696 125.706 125.696 330.257-0.005 455.982zM879.023 459.729c-76.657-76.666-193.185-95.493-289.955-46.836-13.813 6.931-30.509 4.254-41.44-6.672l-398.167-397.842h-77.765v185.218h92.606c19.797 0 35.848 16.045 35.848 35.848v92.611h92.611c9.507 0 18.622 3.776 25.347 10.496l152.008 151.999c10.874 10.874 13.603 27.469 6.782 41.253-47.72 96.411-28.63 212.371 47.501 288.54 97.768 97.749 256.841 97.735 354.624-0.024 97.749-97.768 97.749-256.832 0-354.591z" />
<glyph unicode="&#xe91b;" glyph-name="labyrinth" d="M988.355 959.981h-952.711c-19.685 0-35.645-15.954-35.645-35.645v-952.673c0-19.685 15.959-35.645 35.645-35.645h581.062c19.69 0 35.645 15.959 35.645 35.645 0 19.69-15.954 35.645-35.645 35.645h-545.418v380.327h246.812v-175.456c0-19.69 15.954-35.645 35.645-35.645s35.645 15.954 35.645 35.645v417.573c0 19.69-15.954 35.645-35.645 35.645s-35.645-15.954-35.645-35.645v-170.823h-246.812v429.763h509.773v-233.999c0-19.685 15.954-35.645 35.645-35.645h210.944c19.69 0 35.645 15.959 35.645 35.645 0 19.69-15.954 35.645-35.645 35.645h-175.3v198.355h300.36v-587.792h-336.004c-19.69 0-35.645-15.954-35.645-35.645s15.954-35.645 35.645-35.645h336.004v-222.303h-125.060c-19.69 0-35.645-15.954-35.645-35.645 0-19.685 15.954-35.645 35.645-35.645h160.704c19.69 0 35.645 15.959 35.645 35.645v952.673c0 19.69-15.954 35.645-35.645 35.645z" />
<glyph unicode="&#xe91c;" glyph-name="loading" d="M512.063 242.365c-18.596 0-33.672-15.076-33.672-33.672v-239.016c0-18.596 15.076-33.672 33.672-33.672 18.601 0 33.672 15.076 33.672 33.672v239.016c0 18.596-15.072 33.672-33.672 33.672zM512.063 960c-18.596 0-33.672-15.076-33.672-33.672v-238.957c0-18.596 15.076-33.672 33.672-33.672 18.601 0 33.672 15.076 33.672 33.672v238.957c0 18.596-15.072 33.672-33.672 33.672zM306.585 447.937c0 18.596-15.072 33.672-33.672 33.672h-239.24c-18.601 0-33.672-15.076-33.672-33.672s15.072-33.672 33.672-33.672h239.24c18.601 0 33.672 15.076 33.672 33.672zM990.328 481.61h-239.119c-18.601 0-33.672-15.076-33.672-33.672s15.072-33.672 33.672-33.672h239.119c18.596 0 33.672 15.076 33.672 33.672s-15.076 33.672-33.672 33.672zM319.075 302.701l-169.071-169.121c-13.15-13.155-13.146-34.472 0.004-47.622 6.577-6.573 15.193-9.859 23.809-9.859 8.62 0 17.236 3.286 23.813 9.864l169.071 169.121c13.15 13.155 13.146 34.472-0.009 47.622s-34.476 13.15-47.617-0.004zM318.905 593.465c6.573-6.577 15.193-9.864 23.809-9.864s17.236 3.286 23.813 9.864c13.15 13.15 13.15 34.472-0.004 47.617l-168.896 168.892c-13.15 13.155-34.467 13.15-47.617 0s-13.15-34.472 0.004-47.617l168.892-168.892zM705.028 302.481c-13.159 13.146-34.481 13.141-47.617-0.013-13.15-13.155-13.141-34.476 0.013-47.622l168.995-168.887c6.577-6.568 15.188-9.855 23.804-9.855s17.245 3.291 23.818 9.868c13.15 13.155 13.141 34.476-0.013 47.622l-169 168.887z" />
<glyph unicode="&#xe91d;" glyph-name="locked" d="M798.545 577.949h-61.083v156.614c0 124.306-101.14 225.437-225.455 225.437-124.319 0-225.455-101.131-225.455-225.437v-156.614h-61.093c-19.012 0-34.425-15.409-34.425-34.425v-573.099c0-19.012 15.413-34.425 34.425-34.425h573.086c19.012 0 34.425 15.413 34.425 34.425v573.099c0 19.016-15.413 34.425-34.425 34.425zM355.402 734.563c0 86.342 70.25 156.587 156.605 156.587 86.351 0 156.605-70.245 156.605-156.587v-156.614h-313.211v156.614zM764.12 4.85h-504.241v504.25h504.241v-504.25z" />
<glyph unicode="&#xe91e;" glyph-name="low-battery" d="M992.687 689.934h-842.445c-17.293 0-31.313-14.020-31.313-31.313v-421.243c0-17.293 14.020-31.313 31.313-31.313h842.441c17.293 0 31.313 14.020 31.313 31.313v421.243c0.004 17.293-14.016 31.313-31.309 31.313zM961.375 268.691h-779.819v358.618h779.815v-358.618zM807.542 552.171h78.699v-208.334h-78.699v208.334zM31.313 584.699c-17.293 0-31.313-14.020-31.313-31.313v-210.78c0-17.293 14.020-31.313 31.313-31.313s31.313 14.020 31.313 31.313v210.78c0 17.293-14.020 31.313-31.313 31.313z" />
<glyph unicode="&#xe91f;" glyph-name="magic-wand" d="M750.282 651.371c8.941 0 17.887 3.411 24.708 10.232l86.367 86.363c13.647 13.647 13.647 35.773 0 49.415-13.647 13.651-35.773 13.647-49.415 0.005l-86.367-86.363c-13.647-13.647-13.647-35.773 0-49.415 6.821-6.826 15.762-10.236 24.708-10.236zM804.585 368.601c-13.647 13.642-35.773 13.647-49.42-0.005-13.647-13.647-13.647-35.773 0-49.415l86.358-86.353c6.821-6.821 15.767-10.232 24.708-10.232s17.887 3.411 24.708 10.236c13.647 13.647 13.647 35.773 0 49.415l-86.353 86.353zM989.047 548.655l-122.145-0.009c-19.298 0-34.944-15.646-34.944-34.949 0-19.298 15.646-34.939 34.944-34.939l122.145 0.009c19.298 0 34.944 15.646 34.944 34.949 0 19.294-15.646 34.939-34.944 34.939zM383.176 691.17c6.821-6.821 15.767-10.232 24.708-10.232s17.887 3.411 24.708 10.232c13.647 13.651 13.647 35.773 0 49.42l-86.339 86.344c-13.647 13.642-35.773 13.642-49.415 0-13.647-13.651-13.647-35.773 0-49.42l86.339-86.344zM577.687 767.981c0 0 0 0 0 0 19.303 0 34.944 15.641 34.949 34.939l0.019 122.131c0 19.298-15.641 34.944-34.939 34.949 0 0-0.005 0-0.005 0-19.298 0-34.944-15.641-34.944-34.939l-0.019-122.131c-0.005-19.298 15.641-34.944 34.939-34.949zM737.763 551.031l-122.723 122.723c-13.647 13.642-35.773 13.642-49.415 0l-122.751-122.742c-0.023-0.023-0.042-0.051-0.070-0.075l-432.563-432.559c-6.555-6.555-10.236-15.441-10.236-24.712s3.681-18.152 10.236-24.712l122.732-122.728c6.821-6.821 15.767-10.232 24.708-10.232 8.946 0 17.887 3.411 24.708 10.232l432.545 432.545c0.033 0.037 0.075 0.065 0.107 0.098l122.718 122.732c13.651 13.656 13.651 35.778 0.005 49.429zM663.635 526.319l-73.312-73.312-73.312 73.294 73.322 73.322 73.303-73.303zM157.681 20.359l-73.312 73.312 383.218 383.213 73.317-73.298-383.222-383.227z" />
<glyph unicode="&#xe920;" glyph-name="man" d="M511.625 720.027c66.156 0 119.983 53.818 119.983 119.975 0 66.168-53.826 119.998-119.983 119.998-66.164 0-119.99-53.83-119.99-119.998 0-66.156 53.826-119.975 119.99-119.975zM511.625 901.379c33.832 0 61.361-27.533 61.361-61.377 0-33.829-27.529-61.353-61.361-61.353-33.84 0-61.369 27.525-61.369 61.353 0 33.844 27.529 61.377 61.369 61.377zM557.994 690.677h-91.997c-64.554 0-117.071-52.521-117.071-117.083v-197.296c0-37.162 17.567-71.546 46.764-93.497v-317.486c0-16.191 13.123-29.311 29.311-29.311s29.311 13.119 29.311 29.311v333.423c0 11.251-6.343 21.010-15.644 25.922-19.197 10.251-31.12 30.030-31.12 51.638v197.296c0 32.234 26.219 58.461 58.45 58.461h91.997c32.234 0 58.453-26.227 58.453-58.461v-197.296c0-21.612-11.935-41.395-31.151-51.649-9.29-4.916-15.625-14.667-15.625-25.911v-333.423c0-16.191 13.123-29.311 29.311-29.311s29.311 13.119 29.311 29.311v317.49c29.205 21.948 46.776 56.335 46.776 93.493v197.296c0 64.558-52.517 117.083-117.075 117.083z" />
<glyph unicode="&#xe921;" glyph-name="map" d="M1010.047 853.044c-8.738 6.094-19.903 7.546-29.915 3.871l-308.347-113.28-308.343 113.28c-7.264 2.666-15.236 2.666-22.5 0l-319.569-117.412c-12.839-4.719-21.373-16.945-21.373-30.62v-639.173c0-10.66 5.211-20.647 13.949-26.749 5.55-3.875 12.083-5.872 18.672-5.872 3.788 0 7.598 0.657 11.248 2.001l308.321 113.28 308.339-113.28c7.259-2.666 15.232-2.666 22.5 0l319.595 117.412c12.839 4.719 21.373 16.941 21.373 30.62v639.173c0.004 10.66-5.206 20.647-13.949 26.749zM384.814 779.56l254.345-93.443v-569.673l-254.345 93.443v569.673zM65.241 686.113l254.332 93.443v-569.673l-254.332-93.434v569.665zM958.759 209.887l-254.354-93.443v569.669l254.354 93.443v-569.669z" />
<glyph unicode="&#xe922;" glyph-name="medal" d="M599.674 466.010l124.469 85.846c9.171 6.325 14.647 16.752 14.647 27.893v346.368c0 18.713-15.166 33.883-33.883 33.883h-385.74c-18.717 0-33.883-15.171-33.883-33.883v-346.372c0-11.136 5.476-21.563 14.638-27.888l124.415-85.842c-107.243-36.598-184.618-138.302-184.618-257.815 0-150.094 122.147-272.2 272.281-272.2s272.285 122.106 272.285 272.2c0 119.504-77.371 221.208-184.609 257.81zM512.007 487.858l-43.294 29.871v374.504h86.637v-374.482l-43.343-29.894zM671.023 597.536l-47.911-33.043v327.741h47.911v-294.698zM353.049 892.234h47.897v-327.745l-47.897 33.043v294.703zM512.002 3.766c-112.772 0-204.519 91.706-204.519 204.433 0 112.822 91.747 204.614 204.519 204.614s204.519-91.792 204.519-204.614c-0.005-112.727-91.751-204.433-204.519-204.433zM512.002 376.233c-92.61 0-167.952-75.383-167.952-168.034 0-92.564 75.343-167.866 167.952-167.866 92.65 0 168.025 75.302 168.025 167.866 0 92.655-75.379 168.034-168.025 168.034zM512.002 108.1c-55.239 0-100.186 44.902-100.186 100.1 0 55.288 44.943 100.267 100.186 100.267 55.284 0 100.258-44.979 100.258-100.267 0-55.198-44.974-100.1-100.258-100.1z" />
<glyph unicode="&#xe923;" glyph-name="microphone" d="M877.552 470.251c0 16.957-13.744 30.697-30.697 30.697s-30.697-13.74-30.697-30.697c0-167.711-136.445-304.156-304.156-304.156s-304.156 136.449-304.156 304.156c0 16.957-13.744 30.697-30.697 30.697s-30.697-13.74-30.697-30.697c0-191.229 147.598-348.605 334.853-364.248v-108.609h-136.732c-16.953 0-30.697-13.74-30.697-30.697s13.744-30.697 30.697-30.697h334.853c16.953 0 30.697 13.74 30.697 30.697s-13.744 30.697-30.697 30.697h-136.732v108.609c187.255 15.643 334.857 173.019 334.857 364.248zM511.998 272.13c109.248 0 198.125 88.877 198.125 198.121v291.628c0 109.244-88.877 198.121-198.125 198.121-109.244 0-198.121-88.877-198.121-198.121v-291.628c0-109.248 88.877-198.121 198.121-198.121zM375.27 761.879c0 75.391 61.336 136.728 136.728 136.728 75.395 0 136.732-61.336 136.732-136.728v-291.628c0-75.391-61.336-136.728-136.732-136.728-75.391 0-136.728 61.336-136.728 136.728v291.628z" />
<glyph unicode="&#xe924;" glyph-name="miscellaneus" d="M943.063 238.115l-363.462 209.848 363.412 209.817c16.166 9.334 21.705 30.006 12.371 46.172s-30.006 21.709-46.172 12.371l-363.439-209.83v419.706c0 18.667-15.134 33.801-33.801 33.801s-33.801-15.134-33.801-33.801v-419.674l-363.385 209.799c-16.166 9.343-36.838 3.795-46.172-12.371s-3.795-36.838 12.371-46.172l363.412-209.817-363.462-209.848c-16.166-9.334-21.705-30.006-12.371-46.172 6.26-10.843 17.621-16.905 29.303-16.905 5.737 0 11.546 1.46 16.869 4.534l363.439 209.83v-419.602c0-18.667 15.134-33.801 33.801-33.801s33.801 15.134 33.801 33.801v419.634l363.489-209.862c5.322-3.074 11.136-4.534 16.869-4.534 11.682 0 23.043 6.066 29.303 16.905 9.334 16.17 3.795 36.838-12.376 46.172z" />
<glyph unicode="&#xe925;" glyph-name="move" d="M244.133 676.971c-12.353 5.119-26.552 2.291-36.010-7.159l-198.444-198.444c-6.194-6.198-9.674-14.6-9.674-23.367 0-8.762 3.48-17.164 9.674-23.367l198.444-198.444c6.326-6.322 14.776-9.674 23.375-9.674 4.256 0 8.551 0.819 12.635 2.516 12.348 5.11 20.397 17.164 20.397 30.525v396.888c0 13.362-8.049 25.415-20.397 30.525zM198.448 329.328l-118.674 118.674 118.674 118.679v-237.353zM535.364 950.326c-6.198 6.194-14.6 9.674-23.362 9.674s-17.164-3.48-23.367-9.674l-198.444-198.444c-9.45-9.454-12.274-23.662-7.159-36.010 5.11-12.348 17.164-20.397 30.525-20.397h396.888c13.362 0 25.415 8.049 30.525 20.397 5.115 12.348 2.291 26.556-7.159 36.010l-198.448 198.444zM393.324 761.556l118.674 118.674 118.679-118.674h-237.353zM1014.321 471.369l-198.444 198.444c-9.45 9.45-23.666 12.282-36.010 7.159-12.348-5.11-20.397-17.164-20.397-30.525v-396.888c0-13.362 8.049-25.415 20.397-30.525 4.088-1.696 8.379-2.516 12.635-2.516 8.599 0 17.049 3.357 23.375 9.674l198.444 198.444c6.194 6.198 9.674 14.6 9.674 23.367s-3.48 17.168-9.674 23.367zM825.552 329.328v237.353l118.679-118.674-118.679-118.679zM710.437 200.53h-396.879c-13.362 0-25.415-8.049-30.525-20.397-5.115-12.348-2.291-26.556 7.159-36.010l198.444-198.448c6.198-6.194 14.6-9.674 23.367-9.674 8.762 0 17.164 3.48 23.367 9.679l198.435 198.448c9.45 9.45 12.274 23.657 7.159 36.006-5.115 12.344-17.164 20.397-30.525 20.397zM512.002 15.765l-118.674 118.679h237.348l-118.674-118.679z" />
<glyph unicode="&#xe926;" glyph-name="musical-note" d="M985.587 960h-625.198c-18.596 0-33.672-15.076-33.672-33.672v-601.039h-127.295c-107.348 0-194.68-87.306-194.68-194.617 0-107.343 87.333-194.671 194.68-194.671 107.325 0 194.644 87.328 194.644 194.671v449.28h557.853v-254.662h-127.25c-107.339 0-194.667-87.306-194.667-194.617 0-107.343 87.328-194.671 194.667-194.671 107.298 0 194.595 87.328 194.595 194.671v795.656c-0.004 18.596-15.081 33.672-33.677 33.672zM199.421 3.345c-70.214 0-127.336 57.117-127.336 127.327 0 70.178 57.122 127.273 127.336 127.273h127.3v-127.273c-0.004-70.209-57.108-127.327-127.3-127.327zM394.061 892.655h557.853v-245.36h-557.853v245.36zM824.668 3.345c-70.205 0-127.322 57.117-127.322 127.327 0 70.178 57.117 127.273 127.322 127.273h127.25v-127.273c-0.004-70.209-57.086-127.327-127.25-127.327z" />
<glyph unicode="&#xe927;" glyph-name="newspaper" d="M993.103 783.819h-110.029v103.080c0 17.063-13.833 30.897-30.897 30.897h-821.28c-17.063 0-30.897-13.833-30.897-30.897v-807.332c0-55.89 45.472-101.362 101.362-101.362h821.272c55.89 0 101.362 45.472 101.362 101.362v673.355c0.004 17.063-13.829 30.897-30.893 30.897zM61.793 856.002h759.487v-776.435c0-14.031 2.867-27.407 8.046-39.568h-727.964c-21.817 0-39.568 17.751-39.568 39.568v776.435zM922.638 39.998c-21.813 0-39.564 17.751-39.564 39.568v642.458h79.133v-642.458c0-21.817-17.751-39.568-39.568-39.568zM133.565 518.856h615.957c17.063 0 30.897 13.833 30.897 30.897v206.489c0 17.063-13.833 30.897-30.897 30.897h-615.957c-17.063 0-30.897-13.833-30.897-30.897v-206.489c0-17.063 13.833-30.897 30.897-30.897zM164.461 725.346h554.164v-144.696h-554.164v144.696zM133.565 112.721h269.040c17.063 0 30.897 13.833 30.897 30.897v269.061c0 17.063-13.833 30.897-30.897 30.897h-269.040c-17.063 0-30.897-13.833-30.897-30.897v-269.061c0-17.063 13.833-30.897 30.897-30.897zM164.461 381.786h207.247v-207.268h-207.247v207.268zM749.518 443.58h-260.192c-17.063 0-30.897-13.833-30.897-30.897s13.833-30.897 30.897-30.897h260.192c17.063 0 30.897 13.833 30.897 30.897s-13.833 30.897-30.897 30.897zM749.518 174.515h-260.192c-17.063 0-30.897-13.833-30.897-30.897s13.833-30.897 30.897-30.897h260.192c17.063 0 30.897 13.833 30.897 30.897s-13.833 30.897-30.897 30.897zM749.518 309.064h-260.192c-17.063 0-30.897-13.833-30.897-30.897s13.833-30.897 30.897-30.897h260.192c17.063 0 30.897 13.833 30.897 30.897s-13.833 30.897-30.897 30.897z" />
<glyph unicode="&#xe928;" glyph-name="notification" d="M983.753 190.6c-92.046 79.601-177.227 191.91-177.227 472.311 0 162.388-132.115 294.499-294.508 294.499-162.415 0-294.548-132.111-294.548-294.499 0-280.655-85.149-392.852-177.276-472.387-25.542-22.246-40.194-54.283-40.194-87.901 0-18.502 15-33.502 33.502-33.502h317.937c15.509-74.433 81.603-130.534 160.561-130.534s145.056 56.096 160.561 130.534h317.937c18.502 0 33.502 15 33.502 33.502 0 33.891-14.687 65.977-40.247 87.977zM512 5.591c-41.722 0-77.372 26.485-91.041 63.529h182.083c-13.669-37.045-49.32-63.529-91.041-63.529zM80.2 136.125c1.219 1.322 2.519 2.582 3.891 3.775 140.455 121.26 200.379 277.676 200.379 523.011 0 125.442 102.079 227.494 227.543 227.494 125.446 0 227.503-102.052 227.503-227.494 0-245.112 59.933-401.523 200.46-523.042 1.371-1.184 2.671-2.43 3.895-3.743h-863.671z" />
<glyph unicode="&#xe929;" glyph-name="paint-brush" d="M683.367 420.461c97.725 97.76 97.703 250.92-0.048 348.676-65.545 65.54-155.258 101.634-252.626 101.634-111.726 0-223.884-48.084-307.708-131.921-79.311-79.32-122.99-184.2-122.986-295.321 0.004-111.117 43.697-215.984 123.016-295.282 79.315-79.315 184.187-122.994 295.3-122.994s215.984 43.683 295.3 122.994c17.618 17.618 27.728 42.552 27.732 68.409 0.009 25.878-10.11 50.821-27.724 68.409-17.074 17.087-56.161 26.436-57.302 26.731-1.149 0.296-23.080 5.519-27.197 9.618-11.516 11.512-11.577 33.247-0.148 44.698l54.39 54.351zM583.009 275.201c17.2-17.135 56.14-26.401 56.919-26.601 1.484-0.387 23.48-5.649 27.537-9.714 5.462-5.453 8.596-13.549 8.591-22.218-0.004-8.674-3.142-16.787-8.613-22.262-66.985-66.985-155.462-103.875-249.135-103.875s-182.15 36.89-249.14 103.879c-66.981 66.972-103.879 155.445-103.884 249.122-0.004 93.682 36.885 182.167 103.871 249.162 71.673 71.681 167.004 112.797 261.544 112.797 79.929 0 153.251-29.304 206.462-82.51 71.873-71.877 71.89-184.483 0.052-256.347l-54.407-54.368c-37.068-37.138-36.994-99.888 0.205-137.065zM221.725 430.506c-24.116 0-47.383-9.427-63.865-25.891-34.622-34.639-34.618-93.155 0.013-127.782 16.478-16.465 39.766-25.905 63.904-25.905 24.155 0 47.444 9.453 63.843 25.891 16.486 16.46 25.948 39.74 25.957 63.874 0.004 24.133-9.44 47.418-25.922 63.891s-39.784 25.922-63.93 25.922zM239.452 322.975c-4.287-4.3-10.728-6.763-17.674-6.763-6.964 0-13.435 2.476-17.753 6.794-9.109 9.109-9.105 26.34-0.009 35.44 4.313 4.304 10.767 6.776 17.709 6.776 6.968 0 13.453-2.485 17.788-6.816 4.313-4.309 6.785-10.759 6.785-17.692-0.004-6.933-2.481-13.383-6.846-17.74zM258.375 467.304c16.486 16.465 25.939 39.758 25.939 63.904 0 24.138-9.449 47.431-25.918 63.908-16.46 16.473-39.74 25.926-63.878 25.926-24.164 0-47.461-9.466-63.882-25.935-16.478-16.465-25.931-39.749-25.939-63.887-0.009-24.133 9.423-47.422 25.905-63.917 16.478-16.451 39.766-25.883 63.9-25.887 24.142 0 47.431 9.444 63.874 25.887zM169.981 531.191c0.004 6.955 2.481 13.418 6.842 17.775 4.304 4.313 10.754 6.789 17.696 6.789 6.937 0 13.387-2.472 17.696-6.785 4.33-4.33 6.811-10.807 6.811-17.762 0-6.946-2.472-13.401-6.807-17.727-4.309-4.309-10.767-6.781-17.722-6.781-6.968 0-13.444 2.481-17.748 6.776-4.3 4.309-6.768 10.767-6.768 17.714zM330.653 757.146c-24.133 0-47.422-9.44-63.882-25.896-16.499-16.486-25.952-39.806-25.944-63.965 0.009-24.133 9.462-47.4 25.909-63.813 16.46-16.469 39.745-25.918 63.887-25.918 24.138 0 47.422 9.44 63.874 25.891 16.486 16.465 25.944 39.749 25.948 63.891 0.004 24.146-9.453 47.444-25.918 63.895-16.447 16.465-39.727 25.913-63.874 25.913zM348.349 649.629c-4.313-4.313-10.776-6.789-17.727-6.789s-13.405 2.472-17.74 6.811c-4.3 4.291-6.768 10.728-6.772 17.657 0 6.964 2.481 13.44 6.811 17.77 4.313 4.309 10.776 6.785 17.731 6.785 6.942 0 13.387-2.463 17.705-6.789 4.322-4.322 6.803-10.781 6.803-17.727 0-6.942-2.476-13.392-6.811-17.718zM585.181 704.084c-16.434 16.456-39.714 25.896-63.878 25.896-24.177 0-47.474-9.436-63.926-25.878-34.67-34.67-34.74-93.234-0.118-127.939 16.434-16.408 39.697-25.818 63.817-25.818 24.216 0 47.574 9.462 64.113 25.996 34.613 34.692 34.592 93.208-0.009 127.743zM539.008 622.479c-4.357-4.357-10.894-6.85-17.927-6.85-6.955 0-13.405 2.455-17.648 6.689-8.948 8.97-8.896 26.61 0.109 35.614 4.296 4.296 10.772 6.759 17.762 6.759 6.959 0 13.405-2.459 17.718-6.781 8.94-8.913 8.913-26.483-0.013-35.432zM997.051 256.782c-3.691 3.717-7.708 7.12-11.982 10.241 2.285 21.152 5.405 50.129 5.641 103.762 0.318 64.748-5.58 189.057-14.019 295.578-17.009 214.605-32.302 229.742-42.421 239.756-7.133 7.064-16.269 10.863-26.026 10.724-36.385-0.501-43.461-44.040-50.96-90.135-5.897-36.293-11.982-87.981-17.587-149.469-9.871-108.253-17.557-240.535-17.888-307.717-0.239-53.92 2.637-82.854 4.735-103.984 0.126-1.253 0.239-2.433 0.361-3.63-21.661-18.092-34.674-43.836-34.866-73.657-0.305-42.186 18.375-66.824 34.861-88.564 16.195-21.352 30.178-39.797 32.651-80.382 1.676-27.58 21.696-40.154 39.588-40.162 0.004 0 0.009 0 0.013 0 33.913 0 66.163 45.551 82.371 72.704 15.685 26.279 42.056 79.102 42.478 137.679 0.165 26.087-9.153 49.341-26.949 67.255zM887.092 369.222c0.379 77.709 9.497 223.105 20.83 336.894 10.206-113.337 17.883-257.818 17.505-335.027-0.17-38.622-1.924-63.508-3.695-81.931-3.974 0.309-13.64 0.474-13.64 0.474-6.206-0.065-12.256-0.496-18.127-1.262-1.576 18.275-3.042 42.935-2.872 80.852zM916.369 71.094c-9.553 31.253-25.095 51.744-37.451 68.047-14.684 19.363-21.735 29.517-21.596 48.671 0.165 26.57 27.824 36.293 51.422 36.541l0.888 0.004c17.544 0 32.529-4.953 41.107-13.588 5.423-5.458 8.034-12.269 7.978-20.795-0.313-43.535-22.523-89.861-42.347-118.882z" />
<glyph unicode="&#xe92a;" glyph-name="pause-circular" d="M511.996 959.991c-282.314 0-511.996-229.678-511.996-511.987 0-282.314 229.682-511.996 511.996-511.996 282.318 0 512.004 229.682 512.004 511.996 0 282.309-229.686 511.987-512.004 511.987zM511.996 1.206c-246.368 0-446.798 200.43-446.798 446.798 0 246.364 200.43 446.79 446.798 446.79 246.373 0 446.807-200.426 446.807-446.79 0-246.368-200.439-446.798-446.807-446.798zM607.788 663.317c-18.008 0-32.599-14.591-32.599-32.599v-365.436c0-18.008 14.591-32.599 32.599-32.599s32.599 14.591 32.599 32.599v365.436c0 18.008-14.591 32.599-32.599 32.599zM416.212 663.317c-18.008 0-32.599-14.591-32.599-32.599v-365.436c0-18.008 14.591-32.599 32.599-32.599s32.599 14.591 32.599 32.599v365.436c0 18.008-14.596 32.599-32.599 32.599z" />
<glyph unicode="&#xe92b;" glyph-name="pen-tip" d="M1015.123 537.729c-13.83 17.054-38.86 19.69-55.941 5.854l-175.094-141.918-23.911 23.911c-0.011 0.011-0.016 0.021-0.016 0.021l-294.501 294.501 141.918 175.088c13.83 17.065 11.21 42.111-5.854 55.941-17.065 13.82-42.111 11.205-55.941-5.854l-164.477-202.929c-12.823-15.819-11.624-38.765 2.768-53.168l12.398-12.398-278.99-158.941c-10.097-5.754-17.176-15.644-19.366-27.061l-97.4-507.5c-2.487-12.95 1.612-26.297 10.935-35.625 7.53-7.525 17.68-11.645 28.127-11.645 2.492 0 5.001 0.233 7.493 0.716l507.511 97.395c11.417 2.19 21.313 9.27 27.066 19.372l158.936 278.99 12.398-12.404c7.726-7.721 17.913-11.645 28.138-11.645 8.835 0 17.701 2.933 25.035 8.877l202.929 164.483c17.049 13.83 19.669 38.876 5.839 55.941zM521.792 108.782l-361.939-69.464 242.283 241.492c13.199-5.679 27.522-8.718 42.323-8.718 28.631 0 55.559 11.157 75.806 31.399 41.782 41.787 41.782 109.788-0.005 151.607-20.247 20.247-47.175 31.399-75.806 31.399s-55.554-11.152-75.801-31.394c-20.247-20.252-31.399-47.175-31.399-75.811 0-14.758 3.012-29.044 8.665-42.212l-242.744-241.943 69.607 362.66 282.018 160.659 227.657-227.652-160.664-282.023zM424.901 359.745c-5.223 5.223-8.098 12.165-8.098 19.557 0 7.387 2.88 14.329 8.103 19.557 5.218 5.223 12.16 8.098 19.552 8.098 7.387 0 14.334-2.88 19.552-8.092 10.781-10.792 10.792-28.339 0.011-39.115-5.218-5.223-12.165-8.103-19.557-8.103-7.387-0.005-14.339 2.874-19.563 8.098z" />
<glyph unicode="&#xe92c;" glyph-name="play-circular" d="M511.996 959.991c-282.314 0-511.996-229.678-511.996-511.987 0-282.314 229.682-511.996 511.996-511.996 282.322 0 512.004 229.682 512.004 511.996 0 282.309-229.682 511.987-512.004 511.987zM511.996 1.206c-246.364 0-446.798 200.43-446.798 446.798 0 246.364 200.434 446.79 446.798 446.79 246.373 0 446.807-200.426 446.807-446.79 0-246.368-200.439-446.798-446.807-446.798zM754.982 476.556l-368.57 203.012c-10.106 5.564-22.384 5.381-32.316-0.491-9.927-5.863-16.017-16.534-16.017-28.065v-406.037c0-11.527 6.089-22.198 16.017-28.070 5.107-3.012 10.845-4.529 16.582-4.529 5.411 0 10.827 1.347 15.73 4.047l368.566 203.029c10.41 5.733 16.869 16.673 16.869 28.552s-6.455 22.823-16.86 28.552zM403.281 300.154v295.692l268.405-147.842-268.405-147.85z" />
<glyph unicode="&#xe92d;" glyph-name="power" d="M750.225 721.768h-83.564v202.685c0 19.636-15.911 35.547-35.547 35.547s-35.547-15.911-35.547-35.547v-202.685h-167.138v202.685c0 19.636-15.906 35.547-35.547 35.547-19.632 0-35.547-15.911-35.547-35.547v-202.685h-83.56c-19.636 0-35.547-15.911-35.547-35.547v-238.223c0-138.904 104.016-253.892 238.237-271.386v-205.069c0-19.636 15.906-35.547 35.547-35.547 19.632 0 35.547 15.911 35.547 35.547v205.069c134.207 17.489 238.218 132.482 238.218 271.386v238.223c-0.005 19.636-15.916 35.547-35.552 35.547zM714.678 448.002c0-111.756-90.92-202.676-202.671-202.676-111.765 0-202.69 90.92-202.69 202.676v202.671h405.356v-202.671z" />
<glyph unicode="&#xe92e;" glyph-name="protection" d="M893.275 960h-762.55c-19.561 0-35.419-15.854-35.419-35.419v-571.924c0.019-230.857 385.813-406.22 402.238-413.568 4.604-2.059 9.535-3.089 14.47-3.089s9.87 1.030 14.465 3.089c16.43 7.353 402.21 182.711 402.21 413.573v571.92c0.005 19.566-15.849 35.419-35.414 35.419zM857.856 352.661c0-146.715-237.19-290.413-345.837-342.215-108.652 51.802-345.856 195.495-345.87 342.215v536.501h691.712v-536.501zM378.659 178.564c43.131-31.495 87.24-56.869 116.642-72.604 5.214-2.796 10.961-4.194 16.713-4.194s11.504 1.398 16.723 4.198c29.407 15.75 73.502 41.129 116.642 72.6 52.335 38.224 140.137 112.996 140.137 184.321v422.371c0 19.561-15.854 35.419-35.419 35.419h-476.165c-19.566 0-35.419-15.858-35.419-35.419v-422.371c0-71.348 87.806-146.111 140.146-184.321zM309.351 749.837h405.327v-386.952c0-15.906-23.216-62.947-111.070-127.107-32.387-23.632-65.587-43.655-91.599-58.215-26.017 14.545-59.197 34.56-91.58 58.21-87.863 64.146-111.079 111.197-111.079 127.112v386.952z" />
<glyph unicode="&#xe92f;" glyph-name="quality" d="M905.505 597.789l-77.871 80.487 15.686 110.86c2.4 16.956-9.079 32.76-25.95 35.714l-110.292 19.334-52.501 98.945c-8.025 15.123-26.61 21.159-41.983 13.637l-100.583-49.166-100.608 49.166c-15.385 7.521-33.954 1.481-41.983-13.646l-52.48-98.936-110.305-19.334c-16.867-2.954-28.35-18.759-25.95-35.714l15.682-110.86-77.871-80.487c-11.906-12.308-11.906-31.837 0.004-44.146l77.867-80.478-15.682-110.919c-2.396-16.951 9.083-32.756 25.95-35.71l88.279-15.474v-343.317c0-11 5.697-21.218 15.055-27 5.096-3.153 10.886-4.745 16.689-4.745 4.851 0 9.714 1.109 14.196 3.352l171.161 85.549 171.136-85.549c9.837-4.918 21.527-4.393 30.885 1.393s15.055 16.003 15.055 27.004v343.309l88.283 15.483c16.867 2.959 28.346 18.759 25.95 35.714l-15.686 110.919 77.867 80.474c11.902 12.3 11.902 31.833 0 44.142zM526.207 88.788c-8.931 4.465-19.449 4.47-28.388 0l-139.417-69.685v209.957l11.022-20.778c8.025-15.131 26.614-21.163 41.987-13.637l100.604 49.199 100.574-49.199c4.487-2.192 9.244-3.234 13.929-3.234 11.386 0 22.373 6.154 28.062 16.867l11.022 20.761v-209.936l-139.396 69.685zM771.214 506.162c-6.81-7.039-9.989-16.824-8.618-26.521l13.557-95.872-95.322-16.714c-9.642-1.689-17.967-7.737-22.56-16.384l-45.377-85.498-86.933 42.525c-4.402 2.15-9.176 3.229-13.951 3.229s-9.549-1.075-13.946-3.229l-86.954-42.525-45.361 85.494c-4.588 8.651-12.914 14.7-22.56 16.389l-95.343 16.714 13.553 95.876c1.371 9.693-1.807 19.483-8.618 26.517l-67.302 69.558 67.306 69.567c6.806 7.039 9.985 16.824 8.613 26.517l-13.553 95.813 95.343 16.714c9.646 1.689 17.972 7.741 22.564 16.393l45.361 85.519 86.958-42.495c8.795-4.3 19.085-4.3 27.88 0l86.933 42.495 45.386-85.523c4.588-8.647 12.914-14.696 22.56-16.389l95.322-16.71-13.557-95.813c-1.371-9.697 1.807-19.483 8.613-26.521l67.306-69.567-67.302-69.558zM512.011 792.784c-119.71 0-217.102-97.375-217.102-217.068 0-119.718 97.392-217.114 217.102-217.114 119.693 0 217.072 97.396 217.072 217.114 0 119.693-97.379 217.068-217.072 217.068zM512.011 422.090c-84.702 0-153.613 68.915-153.613 153.626 0 84.685 68.911 153.579 153.613 153.579 84.685 0 153.583-68.894 153.583-153.579 0-84.711-68.898-153.626-153.583-153.626zM576.722 656.249l-93.773-93.752-35.685 35.643c-12.401 12.393-32.502 12.38-44.895-0.025-12.389-12.406-12.376-32.502 0.030-44.891l58.126-58.062c6.196-6.192 14.315-9.286 22.433-9.286 8.122 0 16.249 3.098 22.445 9.295l116.205 116.18c12.401 12.393 12.401 32.493 0.004 44.895-12.393 12.397-32.493 12.401-44.891 0.004z" />
<glyph unicode="&#xe930;" glyph-name="record-circular" d="M511.996 959.991c-282.314 0-511.996-229.678-511.996-511.987 0-282.314 229.682-511.996 511.996-511.996 282.318 0 512.004 229.682 512.004 511.996 0 282.309-229.686 511.987-512.004 511.987zM511.996 1.206c-246.368 0-446.798 200.43-446.798 446.798 0 246.364 200.43 446.79 446.798 446.79 246.373 0 446.807-200.426 446.807-446.79 0-246.368-200.439-446.798-446.807-446.798zM511.996 681.65c-128.835 0-233.65-104.816-233.65-233.65s104.816-233.65 233.65-233.65c128.839 0 233.655 104.816 233.655 233.65s-104.82 233.65-233.655 233.65zM511.996 279.547c-92.885 0-168.453 75.568-168.453 168.453s75.568 168.453 168.453 168.453 168.457-75.568 168.457-168.453-75.573-168.453-168.457-168.453z" />
<glyph unicode="&#xe931;" glyph-name="recycling-sign" d="M442.821 91.62l-356.967 0.004 142.673 247.109 1.182-4.404c3.767-14.032 16.462-23.279 30.326-23.279 2.698 0 5.443 0.348 8.17 1.085 16.764 4.504 26.698 21.741 22.198 38.501l-20.849 77.596c0 0.004 0 0.008 0 0.013-0.406 1.508-0.951 2.941-1.55 4.336-5.929 13.692-20.865 21.486-35.702 18.125-0.419-0.092-0.834-0.159-1.253-0.268l-77.588-20.853c-16.759-4.504-26.698-21.741-22.194-38.501 3.771-14.032 16.462-23.279 30.326-23.279 2.702 0 5.447 0.352 8.174 1.085l4.249 1.144-169.806-294.119c-5.614-9.72-5.614-21.699 0-31.424 5.614-9.72 15.984-15.712 27.213-15.712l411.393-0.008c17.354 0 31.424 14.070 31.424 31.424 0.004 17.354-14.065 31.424-31.42 31.424zM1019.793 75.924l-205.722 356.284c-8.681 15.029-27.9 20.174-42.925 11.501-15.029-8.677-20.178-27.896-11.501-42.929l178.504-309.148-289.561-0.004 3.226 3.235c12.26 12.285 12.239 32.182-0.046 44.438-12.285 12.264-32.182 12.239-44.438-0.046l-56.743-56.856c-12.255-12.28-12.239-32.17 0.038-44.433l56.844-56.777c6.134-6.126 14.17-9.188 22.206-9.188 8.049 0 16.097 3.071 22.236 9.218 12.264 12.28 12.251 32.178-0.029 44.442l-3.121 3.117 343.824 0.004c11.229 0 21.599 5.991 27.213 15.712 5.606 9.729 5.606 21.708-0.004 31.432zM650.269 583.806c-16.747 4.471-33.988-5.476-38.475-22.244-4.479-16.768 5.48-33.992 22.244-38.471l77.638-20.748c0 0 0.004 0 0.004 0h0.004c2.711-0.725 5.443-1.073 8.124-1.073 13.885 0 26.585 9.268 30.339 23.317 0.004 0.008 0.004 0.021 0.004 0.029l20.723 77.6c4.475 16.768-5.489 33.988-22.256 38.467-16.743 4.483-33.988-5.489-38.467-22.252l-1.131-4.249-169.823 294.098c-5.614 9.72-15.988 15.708-27.213 15.708-11.229 0-21.599-5.991-27.213-15.712l-205.667-356.234c-8.677-15.029-3.528-34.248 11.501-42.925 15.029-8.681 34.252-3.528 42.925 11.501l178.463 309.106 142.685-247.097-4.408 1.177z" />
<glyph unicode="&#xe932;" glyph-name="researcher" d="M400.522 576.385c27.35 36.91 43.558 82.55 43.558 131.913 0 122.437-99.597 222.047-222.016 222.047-122.445 0-222.064-99.615-222.064-222.047s99.619-222.042 222.064-222.042c49.346 0 94.977 16.204 131.878 43.55l94.946-94.938c6.433-6.429 14.861-9.644 23.288-9.644 8.431 0 16.859 3.215 23.292 9.648 12.862 12.862 12.858 33.717-0.004 46.575l-94.942 94.938zM65.871 708.298c0 86.115 70.069 156.176 156.193 156.176 86.098 0 156.145-70.060 156.145-156.176 0-86.111-70.047-156.171-156.145-156.171-86.124 0-156.193 70.056-156.193 156.171zM774.885 566.877c98.736 0 179.068 80.323 179.068 179.051 0 98.754-80.328 179.094-179.068 179.094-98.745 0-179.081-80.341-179.081-179.094-0.004-98.727 80.332-179.051 179.081-179.051zM774.885 859.151c62.415 0 113.197-50.791 113.197-113.223 0-62.411-50.778-113.18-113.197-113.18-62.424 0-113.21 50.769-113.21 113.18-0.004 62.433 50.782 113.223 113.21 113.223zM849.617 490.959h-148.267c-96.15 0-174.378-78.233-174.378-174.396v-317.973c0-18.194 14.746-32.936 32.936-32.936s32.936 14.742 32.936 32.936v317.973c0 59.842 48.674 108.525 108.507 108.525h148.267c59.833 0 108.512-48.683 108.512-108.525v-317.973c0-18.194 14.746-32.936 32.936-32.936s32.936 14.742 32.936 32.936v317.973c0 96.163-78.228 174.396-174.383 174.396z" />
<glyph unicode="&#xe933;" glyph-name="research-work" d="M907.729 706.057l-243.639 243.644c-6.599 6.594-15.548 10.3-24.877 10.3h-498.065c-19.432 0-35.177-15.745-35.177-35.177v-953.646c0-19.432 15.745-35.177 35.177-35.177h741.709c19.432 0 35.177 15.745 35.177 35.177v710.008c-0.005 9.329-3.71 18.273-10.304 24.872zM674.39 839.897l123.56-123.555h-123.56v123.555zM176.325 6.354v883.293h427.712v-208.481c0-19.432 15.745-35.177 35.177-35.177h208.462v-571.969c-1.698 3.776-4.062 7.321-7.162 10.422l-118.194 118.189c5.755 7.523 11.158 15.328 16.097 23.456h4.887c19.432 0 35.177 15.745 35.177 35.177 0 10.839-4.906 20.515-12.607 26.969 7.031 23.77 10.867 48.91 10.867 74.936 0 40.359-9.108 78.618-25.323 112.885 15.511 3.668 27.063 17.565 27.063 34.196 0 19.432-15.745 35.177-35.177 35.177h-39.52c-38.324 40.327-89.157 68.595-146.232 78.538 5.333 6.168 8.578 14.183 8.578 22.977 0 19.432-15.745 35.177-35.177 35.177h-250.271c-19.432 0-35.177-15.745-35.177-35.177s15.745-35.177 35.177-35.177h140.116c-38.53-14.179-72.825-37.128-100.591-66.343h-39.525c-19.432 0-35.177-15.745-35.177-35.177 0-16.632 11.552-30.529 27.058-34.196-16.214-34.272-25.323-72.525-25.323-112.885 0-26.026 3.837-51.161 10.867-74.941-7.697-6.454-12.603-16.13-12.603-26.964 0-19.432 15.745-35.177 35.177-35.177h4.887c13.794-22.701 30.946-43.131 50.697-60.696h-55.584c-19.432 0-35.177-15.745-35.177-35.177 0-19.427 15.745-35.177 35.177-35.177h449.742l60.349-60.345c6.867-6.867 15.872-10.3 24.872-10.3s18.006 3.438 24.877 10.304c3.096 3.096 5.459 6.641 7.157 10.417v-38.755h-671.355zM706.387 363.163c0-107.181-87.201-194.377-194.377-194.377-107.2 0-194.42 87.201-194.42 194.377 0 107.219 87.22 194.448 194.42 194.448 107.181 0 194.377-87.229 194.377-194.448zM280.682 724.072h250.271c19.432 0 35.177 15.745 35.177 35.177s-15.745 35.177-35.177 35.177h-250.271c-19.432 0-35.177-15.745-35.177-35.177s15.745-35.177 35.177-35.177z" />
<glyph unicode="&#xe934;" glyph-name="reuse" d="M72.589 501.433c26.353 149.475 131.873 271.853 271.539 322.276l-6.557-11.363c-9.143-15.828-3.724-36.069 12.104-45.212 5.216-3.009 10.904-4.444 16.521-4.444 11.433 0 22.558 5.935 28.687 16.548l45.627 78.992c4.391 7.603 5.586 16.636 3.314 25.113-2.273 8.481-7.815 15.709-15.418 20.1l-79.014 45.632c-15.842 9.143-36.074 3.715-45.212-12.108-9.139-15.828-3.72-36.069 12.108-45.208l8.243-4.761c-163.071-57.736-286.445-200.049-317.122-374.068-14.844-84.106-7.285-170.784 21.856-250.672 4.898-13.428 17.58-21.759 31.096-21.759 3.764 0 7.599 0.649 11.336 2.012 17.174 6.266 26.017 25.263 19.751 42.432-25.161 68.966-31.683 143.823-18.86 216.491zM854.5 162.631c-13.997 11.764-34.869 9.955-46.629-4.038-96.276-114.531-247.481-169.575-394.658-143.598-71.437 12.598-138.095 43.58-193.567 89.101h10.648c18.282 0 33.095 14.818 33.095 33.095s-14.813 33.095-33.095 33.095h-88.108c-8.503 0.803-17.311-1.659-24.371-7.581-6.884-5.772-10.807-13.75-11.645-22.033-0.004-0.031-0.009-0.057-0.013-0.088 0-0.009 0-0.018 0-0.026-0.093-0.949-0.137-1.902-0.146-2.855-0.004-0.168-0.026-0.327-0.026-0.494l-0.035-91.21c-0.009-18.277 14.805-33.1 33.082-33.108h0.013c18.273 0 33.086 14.809 33.095 33.082l0.004 11.526c65.286-55.198 144.516-92.684 229.575-107.683 27.915-4.925 55.948-7.334 83.815-7.334 142.181 0 279.831 62.682 373.005 173.52 11.764 13.988 9.955 34.869-4.038 46.629zM1019.561 331.284c-9.134 15.828-29.384 21.252-45.208 12.113l-10.886-6.284c0.45 2.339 0.98 4.664 1.39 7.007 22.544 127.889-6.054 256.889-80.532 363.253s-185.915 177.35-313.782 199.877c-18.004 3.168-35.169-8.852-38.333-26.851-3.173-17.999 8.847-35.165 26.847-38.337 110.454-19.46 206.721-80.779 271.054-172.66 64.205-91.691 88.929-202.865 69.681-313.116l-4.85 8.397c-9.139 15.828-29.38 21.26-45.208 12.122-15.833-9.134-21.256-29.375-12.122-45.208l45.61-79.027c4.391-7.603 11.619-13.15 20.1-15.422 2.82-0.755 5.697-1.13 8.565-1.13 5.759 0 11.473 1.505 16.548 4.435l79.014 45.618c15.828 9.143 21.252 29.384 12.113 45.212z" />
<glyph unicode="&#xe935;" glyph-name="savings" d="M990.889 502.511h-75.205c-28.868 66.848-77.974 122.364-140.999 159.338l-0.3 115.393c-0.031 11.69-6.225 22.498-16.29 28.435-10.074 5.942-22.529 6.128-32.766 0.494l-87.143-47.896c-12.529 106.855-103.575 190.051-213.736 190.051-118.704 0-215.282-96.569-215.282-215.264 0-16.767 1.991-33.067 5.633-48.743-127.975-51.556-214.8-177.707-214.8-317.775 0-111.093 53.017-213.741 142.729-278.135v-107.628c0-18.286 14.825-33.111 33.111-33.111h166.569c18.277 0 33.097 14.812 33.111 33.089l0.031 43.326h192.541l-0.159-43.185c-0.031-8.803 3.439-17.257 9.651-23.491 6.216-6.238 14.653-9.743 23.46-9.743h156.698c18.286 0 33.111 14.825 33.111 33.111v100.555c69.042 45.94 118.969 115.093 140.712 194.576h59.326c18.286 0 33.111 14.825 33.111 33.111v160.375c0 18.295-14.825 33.115-33.111 33.115zM424.449 882.106c82.181 0 149.042-66.862 149.042-149.042 0-8.494-0.755-16.811-2.124-24.921-0.071-0.336-0.124-0.675-0.185-1.015-12.317-69.85-73.404-123.106-146.733-123.106-82.19 0-149.060 66.862-149.060 149.042s66.866 149.042 149.060 149.042zM957.779 342.136h-52.536c-15.928 0-29.601-11.342-32.541-26.996-14.697-78.234-62.712-146.367-131.732-186.934-10.119-5.947-16.335-16.807-16.335-28.546v-85.77h-90.353l0.163 43.185c0.031 8.803-3.439 17.257-9.655 23.491-6.216 6.238-14.653 9.739-23.456 9.739h-258.873c-18.277 0-33.097-14.812-33.111-33.089l-0.031-43.326h-100.37v92.052c0 11.284-5.748 21.791-15.244 27.875-79.828 51.163-127.485 138.16-127.485 232.729 0 113.036 70.076 214.827 173.35 256.387 8.432-14.096 18.445-27.133 29.764-38.907h-27.058c-18.286 0-33.111-14.82-33.111-33.111 0-18.286 14.825-33.111 33.111-33.111h364.32c18.286 0 33.111 14.825 33.111 33.111 0 18.29-14.825 33.111-33.111 33.111h-27.054c25.403 26.427 44.17 59.268 53.503 95.867l75.263 41.366 0.207-79.117c0.031-12.414 7.006-23.769 18.065-29.411 63.595-32.44 111.645-87.249 135.299-154.331 4.671-13.244 17.187-22.1 31.226-22.1h64.667v-94.162z" />
<glyph unicode="&#xe936;" glyph-name="schedule" d="M857.406 856.046h-126.263v26.399c0 18.596-15.072 33.673-33.673 33.673h-45.88v10.21c0 18.596-15.072 33.673-33.673 33.673h-214.090c-18.601 0-33.673-15.076-33.673-33.673v-10.21h-45.853c-18.601 0-33.673-15.076-33.673-33.673v-26.399h-124.036c-18.601 0-33.673-15.076-33.673-33.673v-852.701c0-18.596 15.072-33.673 33.673-33.673h690.812c18.601 0 33.673 15.076 33.673 33.673v852.701c0 18.596-15.072 33.673-33.673 33.673zM357.975 848.773h45.853c18.601 0 33.673 15.076 33.673 33.673v10.21h146.745v-10.21c0-18.596 15.072-33.673 33.673-33.673h45.88v-112.48h-305.823v112.48zM823.734 3.345h-623.467v785.356h90.364v-86.080c0-18.596 15.072-33.673 33.673-33.673h373.168c18.601 0 33.673 15.076 33.673 33.673v86.080h92.591v-785.356zM700.048 554.035h-376.104c-18.601 0-33.673-15.076-33.673-33.673s15.072-33.673 33.673-33.673h376.104c18.601 0 33.673 15.076 33.673 33.673s-15.072 33.673-33.673 33.673zM700.048 322.61h-376.104c-18.601 0-33.673-15.076-33.673-33.673s15.072-33.673 33.673-33.673h376.104c18.601 0 33.673 15.076 33.673 33.673s-15.072 33.673-33.673 33.673zM700.048 438.34h-376.104c-18.601 0-33.673-15.076-33.673-33.673s15.072-33.673 33.673-33.673h376.104c18.601 0 33.673 15.076 33.673 33.673s-15.072 33.673-33.673 33.673zM700.048 206.884h-376.104c-18.601 0-33.673-15.076-33.673-33.673s15.072-33.673 33.673-33.673h376.104c18.601 0 33.673 15.076 33.673 33.673s-15.072 33.673-33.673 33.673z" />
<glyph unicode="&#xe937;" glyph-name="search" d="M1023.916 418.409c0.029 0.555 0.084 1.105 0.084 1.664 0 4.004-0.748 7.831-2.109 11.356l-87.969 291.077c-4.016 13.297-16.271 22.392-30.161 22.392h-29.69v81.693h14.839c17.401 0 31.509 14.103 31.509 31.509 0 17.401-14.108 31.509-31.509 31.509h-278.23c-17.401 0-31.509-14.108-31.509-31.509 0-17.406 14.108-31.509 31.509-31.509h14.877v-81.688h-44.793c-17.401 0-31.509-14.103-31.509-31.509v-41.84h-74.559v41.84c0 17.406-14.108 31.509-31.509 31.509h-44.81v81.688h14.86c17.401 0 31.509 14.103 31.509 31.509 0 17.401-14.108 31.509-31.509 31.509h-278.238c-17.401 0-31.509-14.108-31.509-31.509 0-17.406 14.108-31.509 31.509-31.509h14.885v-81.688h-29.703c-13.889 0-26.144-9.096-30.161-22.392l-88.557-292.942c-0.034-0.097-0.063-0.197-0.092-0.298l-0.025-0.080c-0.021-0.071-0.029-0.134-0.050-0.202-0.298-1.012-0.542-2.042-0.739-3.092-0.071-0.366-0.113-0.731-0.168-1.097-0.113-0.756-0.21-1.512-0.269-2.281-0.034-0.462-0.055-0.924-0.071-1.386-0.004-0.357-0.046-0.702-0.046-1.059v-307.873c0-0.13 0.017-0.265 0.017-0.395 0.424-69.202 100.388-105.413 199.154-105.413 98.779 0 198.759 36.21 199.188 105.413 0 0.13 0.017 0.265 0.017 0.395v276.364h44.81c17.401 0 31.509 14.103 31.509 31.509v41.81h74.555v-41.81c0-17.406 14.108-31.509 31.509-31.509h44.793v-276.364c0-0.13 0.017-0.265 0.017-0.395 0.429-69.202 100.392-105.413 199.163-105.413 98.989 0 199.192 36.357 199.192 105.85 0 0.092-0.013 0.181-0.013 0.269v305.899zM688.571 826.59h122.478v-81.688h-122.478v81.688zM212.901 826.59h122.461v-81.688h-122.461v81.688zM199.171 69.41c-89.339 0-136.153 31.824-136.153 42.831s46.814 42.831 136.153 42.831c89.364 0 136.187-31.824 136.187-42.831 0-11.003-46.823-42.831-136.187-42.831zM335.358 191.472c-37.366 17.607-86.923 26.623-136.187 26.623-49.251 0-98.796-9.012-136.153-26.619v197.087h272.34v-197.092zM411.677 451.582h-337.723l69.618 230.298h268.105v-230.298zM474.695 524.901v83.634h74.555v-83.629h-74.555zM612.268 493.392v188.492h268.096l69.597-230.298h-337.698v41.806zM960.898 388.563v-197.083c-37.361 17.603-86.911 26.615-136.161 26.615-49.255 0-98.8-9.012-136.161-26.619v197.087h272.323zM824.736 69.41c-89.347 0-136.161 31.824-136.161 42.831s46.818 42.831 136.161 42.831c89.104 0 135.901-31.639 136.161-42.735v-0.143c0-0.013 0-0.025 0-0.038-0.218-11.079-47.020-42.747-136.161-42.747z" />
<glyph unicode="&#xe938;" glyph-name="settings" d="M984.699 959.99c-21.71 0-39.301-17.591-39.301-39.301v-945.377c0-21.71 17.591-39.301 39.301-39.301 21.705 0 39.301 17.591 39.301 39.301v945.377c0 21.71-17.596 39.301-39.301 39.301zM39.301 959.99c-21.705 0-39.301-17.591-39.301-39.301v-945.377c0-21.71 17.596-39.301 39.301-39.301s39.301 17.591 39.301 39.301v945.377c0 21.71-17.596 39.301-39.301 39.301zM472.605 770.809h-78.864v149.879c0 21.71-17.596 39.301-39.301 39.301s-39.301-17.591-39.301-39.301v-149.879h-78.87c-21.705 0-39.301-17.591-39.301-39.301v-236.352c0-21.71 17.596-39.301 39.301-39.301h78.87v-480.549c0-21.71 17.596-39.301 39.301-39.301s39.301 17.591 39.301 39.301v480.554h78.87c21.705 0 39.301 17.591 39.301 39.301v236.347c-0.005 21.71-17.602 39.301-39.306 39.301zM433.303 534.463h-157.734v157.744h157.739v-157.744zM787.732 440.14h-78.87v480.549c0 21.71-17.596 39.301-39.301 39.301s-39.301-17.591-39.301-39.301v-480.549h-78.87c-21.705 0-39.301-17.591-39.301-39.301v-236.342c0-21.71 17.596-39.301 39.301-39.301h78.87v-149.879c0-21.71 17.596-39.301 39.301-39.301s39.301 17.591 39.301 39.301v149.879h78.87c21.705 0 39.301 17.591 39.301 39.301v236.342c0 21.71-17.596 39.301-39.301 39.301zM748.431 203.798h-157.734v157.739h157.734v-157.739z" />
<glyph unicode="&#xe939;" glyph-name="share" d="M792.719 322.407c-59.71 0-113.164-27.239-148.632-69.935l-230.717 130.992c7.175 20.19 11.118 41.899 11.118 64.523 0 22.619-3.943 44.328-11.118 64.518l230.699 131.024c35.463-42.71 88.927-69.958 148.641-69.958 106.512 0 193.167 86.687 193.167 193.244 0.009 106.525-86.646 193.185-193.158 193.185-106.525 0-193.19-86.66-193.19-193.181 0-22.624 3.939-44.337 11.118-64.532l-230.713-131.029c-35.463 42.688-88.913 69.917-148.609 69.917-106.539 0-193.217-86.66-193.217-193.185 0-106.521 86.678-193.181 193.217-193.181 59.696 0 113.141 27.23 148.605 69.913l230.717-130.997c-7.179-20.195-11.123-41.913-11.123-64.541 0-106.521 86.664-193.181 193.19-193.181 106.512 0 193.167 86.664 193.167 193.181 0.005 106.539-86.651 193.221-193.163 193.221zM792.719 892.399c69.237 0 125.566-56.334 125.566-125.58 0-69.282-56.33-125.643-125.566-125.643-69.25 0-125.589 56.361-125.589 125.643 0 69.246 56.339 125.58 125.589 125.58zM231.33 322.407c-69.264 0-125.616 56.339-125.616 125.58 0 69.25 56.352 125.584 125.616 125.584 69.237 0 125.562-56.334 125.562-125.584 0-69.241-56.33-125.58-125.562-125.58zM792.719 3.601c-69.25 0-125.589 56.339-125.589 125.58 0 69.268 56.339 125.625 125.589 125.625 69.237 0 125.566-56.357 125.566-125.625 0-69.241-56.33-125.58-125.566-125.58z" />
<glyph unicode="&#xe93a;" glyph-name="shirt" d="M997.457 851.589h-296.943c-14.662 0-26.543-11.884-26.543-26.543 0-89.286-72.667-161.925-161.982-161.925-89.311 0-161.975 72.639-161.975 161.925 0 14.659-11.881 26.543-26.543 26.543h-296.929c-14.662 0-26.543-11.884-26.543-26.543v-377.032c0-14.659 11.881-26.543 26.543-26.543h161.982v-350.514c0-14.659 11.881-26.543 26.543-26.543h593.862c14.662 0 26.543 11.884 26.543 26.543v350.514h161.989c14.662 0 26.543 11.884 26.543 26.543v377.032c-0.004 14.659-11.888 26.543-26.546 26.543zM970.914 474.553h-161.989c-14.662 0-26.543-11.884-26.543-26.543v-350.514h-540.772v350.514c0 14.659-11.881 26.543-26.543 26.543h-161.982v323.95h245.482c13.119-106.079 103.832-188.468 213.429-188.468 109.601 0 200.31 82.389 213.436 188.468h245.489v-323.95z" />
<glyph unicode="&#xe93b;" glyph-name="shopping-cart" d="M1017.839 733.955c-5.586 7.227-14.21 11.46-23.345 11.46h-750.569l-32.782 126.105c-3.379 13.006-15.118 22.082-28.557 22.082h-153.081c-16.295 0-29.505-13.21-29.505-29.505s13.21-29.505 29.505-29.505h130.264l32.782-126.105c0-0.004 0-0.004 0.004-0.008l115.586-444.423c3.379-13.002 15.118-22.078 28.553-22.078h542.196c13.435 0 25.174 9.076 28.553 22.078l115.601 444.431c2.305 8.836 0.382 18.246-5.205 25.469zM463.731 300.983h-104.22l-23.179 89.114h127.4v-89.114zM463.731 449.111h-142.746l-23.191 89.173h165.937v-89.173zM463.731 597.294h-181.288l-23.175 89.11h204.463v-89.11zM692.857 300.983h-170.115v89.114h170.115v-89.114zM692.857 449.111h-170.115v89.173h170.115v-89.173zM692.857 597.294h-170.115v89.11h170.115v-89.11zM856.080 300.983h-104.212v89.114h127.392l-23.179-89.114zM894.61 449.111h-142.742v89.173h165.937l-23.195-89.173zM933.155 597.294h-181.284v89.11h204.467l-23.183-89.11zM414.969 217.964c-59.427 0-107.777-48.349-107.777-107.773 0-59.435 48.349-107.792 107.777-107.792 59.423 0 107.773 48.357 107.773 107.792 0 59.423-48.345 107.773-107.773 107.773zM414.969 61.409c-26.889 0-48.766 21.885-48.766 48.782 0 26.889 21.877 48.762 48.766 48.762 26.885 0 48.762-21.877 48.762-48.762 0-26.901-21.873-48.782-48.762-48.782zM800.622 217.964c-59.42 0-107.761-48.349-107.761-107.773 0-59.435 48.341-107.792 107.761-107.792 59.431 0 107.777 48.357 107.777 107.792 0 59.423-48.349 107.773-107.777 107.773zM800.622 61.409c-26.881 0-48.75 21.885-48.75 48.782 0 26.889 21.869 48.762 48.75 48.762 26.893 0 48.766-21.877 48.766-48.762 0-26.901-21.877-48.782-48.766-48.782z" />
<glyph unicode="&#xe93c;" glyph-name="sleep-mode" d="M1009.495 354.599c-12.147 9.525-28.864 10.727-42.253 3.030-63.486-36.491-130.588-54.996-199.443-54.996-221.237 0-401.22 179.993-401.22 401.235 0 69.158 18.531 136.169 55.082 199.166 7.763 13.374 6.611 30.127-2.909 42.319-9.515 12.192-25.49 17.379-40.349 13.086-106.876-30.809-203.070-96.174-270.859-184.049-70.355-91.209-107.543-200.443-107.543-315.9 0-288.061 234.348-522.424 522.404-522.424 115.457 0 224.717 37.172 315.971 107.507 87.936 67.774 153.331 163.912 184.14 270.712 4.283 14.839-0.869 30.783-13.020 40.314zM522.404 11.83c-246.283 0-446.645 200.373-446.645 446.66 0 166.155 95.078 317.36 239.58 393.351-16.303-47.905-24.521-97.396-24.521-147.973 0-263.015 213.974-476.994 476.979-476.994 50.506 0 100.083 8.253 148.22 24.612-75.981-144.533-227.318-239.656-393.614-239.656z" />
<glyph unicode="&#xe93d;" glyph-name="star" d="M1022.451 565.604c-3.712 11.426-13.589 19.755-25.478 21.48l-315.553 45.873-141.111 285.93c-5.32 10.774-16.291 17.596-28.302 17.596-12.015 0-22.987-6.822-28.306-17.596l-141.111-285.93-315.562-45.873c-11.893-1.73-21.771-10.058-25.482-21.48-3.712-11.426-0.619-23.967 7.988-32.355l228.341-222.571-53.898-314.257c-2.028-11.843 2.837-23.812 12.554-30.869 9.717-7.062 22.604-7.996 33.239-2.403l282.239 148.367 282.235-148.367c4.617-2.428 9.663-3.624 14.683-3.624 0.029 0 0.059 0 0.088 0 0 0 0 0 0.004 0 17.432 0 31.564 14.132 31.564 31.564 0 2.647-0.328 5.219-0.938 7.676l-53.503 311.922 228.328 222.567c8.602 8.379 11.7 20.925 7.984 32.351zM730.192 344.3c-7.441-7.251-10.837-17.701-9.078-27.94l45.898-267.581-240.314 126.331c-9.196 4.836-20.18 4.836-29.371 0l-240.318-126.331 45.898 267.581c1.759 10.239-1.637 20.685-9.078 27.94l-194.429 189.513 268.7 39.059c10.281 1.494 19.17 7.95 23.765 17.267l120.153 243.458 120.153-243.458c4.596-9.313 13.484-15.773 23.761-17.267l268.688-39.059-194.429-189.513z" />
<glyph unicode="&#xe93e;" glyph-name="statistics" d="M993.312 65.802h-161.698v405.373c0 16.952-13.736 30.688-30.688 30.688h-161.857v161.174c0 16.952-13.736 30.688-30.688 30.688h-192.562c-16.952 0-30.688-13.736-30.688-30.688v-221.241h-161.898c-16.952 0-30.688-13.736-30.688-30.688v-345.306h-131.169v795.112c0 16.952-13.74 30.688-30.688 30.688-16.952 0-30.688-13.736-30.688-30.688v-825.796c0-16.952 13.736-30.688 30.688-30.688h191.989c0.188-0.004 0.368-0.029 0.556-0.029h192.562c0.008 0 0.008 0 0.016 0s0.008 0 0.016 0h385.107c0.188 0 0.368 0.025 0.556 0.029h191.829c16.952 0 30.688 13.736 30.688 30.688-0.008 16.948-13.748 30.684-30.696 30.684zM770.238 440.492v-374.685h-131.169v374.685h131.169zM577.697 632.349v-566.547h-131.185v566.547h131.185zM253.921 380.421h131.185v-314.618h-131.185v314.618z" />
<glyph unicode="&#xe93f;" glyph-name="stethoscope" d="M894.25 441.533c0 74.078-60.273 134.347-134.36 134.347s-134.36-60.264-134.36-134.347c0-62.419 42.783-115.022 100.559-130.052v-151.247c0-86.368-70.265-156.633-156.637-156.633-86.354 0-156.61 70.265-156.61 156.633v303.535c121.511 16.558 215.473 120.944 215.473 246.935v215.495c0 18.667-15.134 33.801-33.801 33.801h-107.721c-18.667 0-33.801-15.134-33.801-33.801s15.134-33.801 33.801-33.801h73.92v-181.695c0-100.181-81.496-181.681-181.672-181.681-100.185 0-181.695 81.5-181.695 181.681v181.695h73.947c18.667 0 33.801 15.134 33.801 33.801s-15.134 33.801-33.796 33.801h-107.748c-18.672 0-33.801-15.134-33.801-33.801v-215.495c0-125.987 93.975-230.377 215.495-246.935v-303.535c0-123.643 100.577-224.234 224.212-224.234 123.648 0 224.239 100.591 224.239 224.234v151.247c57.777 15.030 100.555 67.633 100.555 130.052zM759.895 374.774c-36.807 0-66.759 29.947-66.759 66.759 0 36.802 29.947 66.745 66.759 66.745s66.759-29.943 66.759-66.745c-0.005-36.811-29.952-66.759-66.759-66.759z" />
<glyph unicode="&#xe940;" glyph-name="stop-circular" d="M511.996 959.991c-282.314 0-511.996-229.678-511.996-511.987 0-282.314 229.682-511.996 511.996-511.996 282.318 0 512.004 229.682 512.004 511.996 0 282.309-229.686 511.987-512.004 511.987zM511.996 1.206c-246.368 0-446.798 200.43-446.798 446.798 0 246.364 200.43 446.79 446.798 446.79 246.373 0 446.807-200.426 446.807-446.79 0-246.368-200.439-446.798-446.807-446.798zM694.718 663.317h-365.436c-18.008 0-32.599-14.591-32.599-32.599v-365.436c0-18.008 14.591-32.599 32.599-32.599h365.436c18.008 0 32.599 14.591 32.599 32.599v365.436c0 18.008-14.591 32.599-32.599 32.599zM662.119 297.881h-300.239v300.239h300.239v-300.239z" />
<glyph unicode="&#xe941;" glyph-name="telephone" d="M831.946 164.845l-21.356 35.659c-38.407 63.324-91.413 136.004-160.939 136.004-12.881 0-25.637-2.591-38.264-7.838l-37.317-16.003c-3.408-1.413-6.72-3.020-10.225-4.725-9.551-4.646-20.381-9.907-31.521-9.907-27.48 0-59.319 35.761-89.64 100.692-29.757 63.73-27.859 97.14-21.028 113.951 7.537 18.548 25.064 26.478 43.894 33.604 2.619 0.993 4.983 1.894 7.283 2.84l37.788 15.911c98.447 41.169 61.823 185.039 49.815 232.207l-10.184 40.555c-8.706 33.424-31.789 122.204-108.354 122.204-14.174 0-29.295-3.302-44.928-9.819-10.258-4.073-151.416-61.693-202.556-162.921-61.121-120.491-49.819-282.068 33.558-480.14 82.754-198.321 190.063-319.625 318.951-360.535 22.109-7.025 47.094-10.581 74.269-10.581 0 0 0.009 0 0.014 0 88.947 0 176.748 37.844 183.875 40.984 30.667 12.992 50.489 32.736 58.913 58.687 14.28 44.009-9.676 92.226-32.047 129.169zM798.093 57.059c-1.958-6.032-8.766-11.537-20.22-16.359-0.189-0.083-0.42-0.18-0.614-0.268-0.794-0.351-80.269-35.16-156.072-35.156-20.053 0-37.987 2.466-53.302 7.334-108.585 34.468-201.434 142.526-276.027 321.283-75.147 178.536-87.155 320.526-35.641 422.076 40 79.174 165.23 129.4 166.458 129.88 0.249 0.102 0.494 0.199 0.739 0.3 7.131 2.993 13.523 4.572 18.483 4.572 15.264 0 29.156-23.674 41.229-70.076l10.138-40.384c21.873-85.903 18.543-139.634-9.459-151.347l-37.608-15.841c-1.496-0.619-3.247-1.27-5.177-2.004-20.774-7.865-64.003-24.224-83.553-72.311-17.739-43.635-10.396-99.029 22.427-169.35 44.208-94.646 94.064-140.655 152.418-140.655 27.083 0 48.822 10.567 61.809 16.876 2.392 1.164 4.531 2.231 6.831 3.182l37.373 16.026c3.856 1.607 7.56 2.388 11.32 2.388 17.989 0 50.244-17.813 101.611-102.488l21.342-35.636c26.302-43.427 28.38-63.148 25.494-72.043z" />
<glyph unicode="&#xe942;" glyph-name="temperature" d="M654.231 357.316v460.481c0 78.412-63.808 142.204-142.237 142.204-78.416 0-142.212-63.792-142.212-142.204v-460.476c-58.258-44.379-92.569-112.923-92.569-186.534 0-129.463 105.319-234.785 234.781-234.785 129.471 0 234.798 105.323 234.798 234.785 0 73.603-34.311 142.147-92.561 186.53zM511.994-2.606c-95.606 0-173.388 77.782-173.388 173.392 0 58.504 29.42 112.706 78.698 144.991 8.656 5.673 13.875 15.328 13.875 25.675v476.345c0 44.559 36.255 80.81 80.819 80.81 44.58 0 80.843-36.251 80.843-80.81v-476.345c0-10.351 5.214-20.002 13.875-25.675 49.27-32.289 78.69-86.491 78.69-144.991-0.008-95.61-77.798-173.392-173.412-173.392zM542.699 268.127v405.681c0 16.953-13.74 30.697-30.697 30.697s-30.697-13.744-30.697-30.697v-405.681c-41.355-13.028-71.339-51.661-71.339-97.342 0-56.347 45.677-102.040 102.036-102.040 56.372 0 102.044 45.693 102.044 102.040-0.004 45.685-29.989 84.322-71.348 97.342z" />
<glyph unicode="&#xe943;" glyph-name="thumb-up" d="M1012.202 600.543c0 18.595-15.071 33.67-33.67 33.67h-351.731l71.955 283.847c2.55 10.070 0.31 20.75-6.070 28.952s-16.184 12.988-26.568 12.988h-203.749c-15.407 0-28.848-10.456-32.637-25.387l-76.229-300.4h-22.788v23.327c0 18.59-15.062 33.666-33.652 33.675l-251.578 0.139c-0.004 0-0.013 0-0.018 0-8.925 0-17.495-3.547-23.807-9.859-6.316-6.316-9.863-14.887-9.863-23.82l0.157-688.013c0.004-18.59 15.075-33.661 33.67-33.661h251.34c18.595 0 33.67 15.071 33.67 33.666l0.009 85.392 116.673-58.312c4.673-2.334 9.823-3.551 15.053-3.551h462.321c18.599 0 33.67 15.075 33.67 33.67v109.733h20.166c18.599 0 33.67 15.075 33.67 33.67 0 0.090-0.013 0.18-0.013 0.269s0.013 0.18 0.013 0.269v429.737zM79.286 3.34l-0.139 620.655 184.224-0.099-0.004-21.921c-0.018-0.476-0.072-0.947-0.072-1.428v-491.008c0-0.081 0.018-0.153 0.018-0.233l-0.013-105.962h-184.013zM891.026 60.539h-420.709l-139.659 69.8 0.054 436.534h48.988c15.407 0 28.848 10.456 32.637 25.387l76.224 300.4h134.285l-71.955-283.847c-2.55-10.070-0.31-20.754 6.070-28.952s16.184-12.992 26.572-12.992h361.329v-75.964h-212.696c-18.599 0-33.67-15.075-33.67-33.67s15.071-33.67 33.67-33.67h212.696v-76.148h-212.696c-18.599 0-33.67-15.075-33.67-33.67s15.071-33.67 33.67-33.67h212.696v-76.139h-212.763c-18.599 0-33.67-15.075-33.67-33.67s15.071-33.67 33.67-33.67h158.923v-76.058z" />
<glyph unicode="&#xe944;" glyph-name="timer" d="M671.74 366.101h-145.676v160.023c0 17.765-14.398 32.168-32.168 32.168s-32.168-14.402-32.168-32.168v-192.19c0-17.765 14.398-32.168 32.168-32.168h177.844c17.769 0 32.168 14.402 32.168 32.168s-14.398 32.168-32.168 32.168zM823.013 614.538l21.269 21.286 10.204-10.208c6.283-6.288 14.518-9.427 22.753-9.427 8.231 0 16.461 3.14 22.74 9.414 12.567 12.558 12.575 32.927 0.013 45.489l-32.258 32.275c-0.232 0.249-0.437 0.51-0.678 0.751-0.236 0.236-0.489 0.433-0.733 0.661l-32.168 32.189c-12.567 12.571-32.931 12.571-45.489 0.013-12.567-12.558-12.575-32.927-0.013-45.489l10.152-10.161-21.475-21.492c-45.991 39.026-100.646 68.127-160.636 83.953 18.014 22.757 28.814 51.481 28.814 82.696-0.004 73.621-59.883 133.512-133.482 133.512-73.629 0-133.53-59.892-133.53-133.512 0-31.22 10.804-59.947 28.831-82.705-175.901-46.407-305.982-206.85-305.982-397.115 0-226.442 184.23-410.668 410.681-410.668 226.421 0 410.629 184.226 410.629 410.668 0 102.263-37.58 195.909-99.642 267.87zM442.831 826.488c0 38.146 31.040 69.177 69.195 69.177 38.129 0 69.143-31.031 69.143-69.177 0-38.134-31.018-69.16-69.143-69.16-38.155 0-69.195 31.027-69.195 69.16zM512.026 0.335c-190.972 0-346.346 155.365-346.346 346.333 0 190.964 155.374 346.324 346.346 346.324 190.951 0 346.294-155.361 346.294-346.324 0-190.968-155.348-346.333-346.294-346.333zM512.026 646.113c-160.044 0-290.254-130.201-290.254-290.241 0-160.031 130.206-290.228 290.254-290.228 160.018 0 290.203 130.197 290.203 290.228 0 160.044-130.188 290.241-290.203 290.241zM512.026 129.979c-124.574 0-225.919 101.336-225.919 225.893 0 124.566 101.345 225.906 225.919 225.906 124.544 0 225.868-101.341 225.868-225.906 0-124.553-101.323-225.893-225.868-225.893z" />
<glyph unicode="&#xe945;" glyph-name="touch" d="M780.447 593.141c-26.090 0-49.897-9.958-67.826-26.27-17.925 16.312-41.736 26.27-67.826 26.27-26.107 0-49.936-9.963-67.875-26.275-7.367 6.706-15.77 12.263-24.874 16.568 32.902 40.375 52.118 91.616 52.118 145.826 0.004 127.232-103.491 230.74-230.705 230.74-127.245 0-230.771-103.508-230.771-230.74 0-88.588 51.329-169.202 129.849-207.47v-281.434c0-167.818 136.542-304.351 304.373-304.351 167.844 0 304.4 136.533 304.4 304.351v251.916c0 55.621-45.248 100.869-100.864 100.869zM208.783 729.26c0 90.787 73.871 164.645 164.676 164.645 90.77 0 164.615-73.858 164.615-164.645 0-51.562-24.362-99.357-63.746-130.052v130.052c0 55.643-45.253 100.913-100.873 100.913-55.647 0-100.922-45.27-100.922-100.913v-130.043c-39.388 30.685-63.75 78.48-63.75 130.043zM815.217 240.356c0-131.374-106.905-238.257-238.305-238.257-131.387 0-238.279 106.883-238.279 238.257v301.545c0.057 1.106 0.057 2.212 0 3.309v184.051c0 19.198 15.625 34.819 34.827 34.819 19.176 0 34.779-15.62 34.779-34.819v-309.476c0-18.251 14.796-33.047 33.047-33.047s33.047 14.796 33.047 33.047v72.488c0 19.176 15.598 34.779 34.77 34.779s34.766-15.603 34.766-34.779v-72.488c0-18.251 14.796-33.047 33.047-33.047s33.047 14.796 33.047 33.047v72.488c0 19.176 15.629 34.779 34.841 34.779 19.176 0 34.779-15.603 34.779-34.779v-72.488c0-18.251 14.796-33.047 33.047-33.047s33.047 14.796 33.047 33.047v72.488c0 19.176 15.603 34.779 34.779 34.779 19.172 0 34.77-15.603 34.77-34.779v-251.916z" />
<glyph unicode="&#xe946;" glyph-name="trash" d="M956.971 853.919h-232.203v71.313c0 19.206-15.562 34.769-34.769 34.769h-355.975c-19.206 0-34.769-15.562-34.769-34.769v-71.313h-232.226c-19.206 0-34.769-15.562-34.769-34.769s15.562-34.769 34.769-34.769h56.645l58.309-816.088c1.298-18.196 16.439-32.293 34.681-32.293h590.695c18.242 0 33.378 14.098 34.676 32.293l58.314 816.088h56.622c19.206 0 34.769 15.562 34.769 34.769s-15.567 34.769-34.769 34.769zM368.793 890.463h286.438v-36.544h-286.438v36.544zM774.983 5.537h-525.947l-55.653 778.844h637.257l-55.658-778.844zM512.002 668.375c-19.206 0-34.769-15.562-34.769-34.769v-477.234c0-19.206 15.562-34.769 34.769-34.769s34.769 15.562 34.769 34.769v477.234c0 19.202-15.562 34.769-34.769 34.769zM357.926 636.082c-1.363 19.155-18.070 33.665-37.156 32.2-19.155-1.368-33.573-18.005-32.2-37.156l34.092-477.234c1.303-18.311 16.564-32.293 34.643-32.293 0.834 0 1.669 0.028 2.513 0.093 19.155 1.368 33.573 18.005 32.2 37.156l-34.092 477.234zM666.134 636.082l-34.106-477.234c-1.372-19.151 13.045-35.788 32.2-37.156 0.844-0.065 1.678-0.093 2.513-0.093 18.070 0 33.331 13.982 34.643 32.293l34.106 477.234c1.372 19.151-13.045 35.788-32.2 37.156-19.076 1.451-35.788-13.045-37.156-32.2z" />
<glyph unicode="&#xe947;" glyph-name="tree" d="M791.924 632.593c0.081 2.357 0.117 4.71 0.117 7.058 0 76.836-41.868 147.714-108.032 185.246-19.046 78.174-90.009 135.104-172.005 135.104s-152.955-56.925-172.005-135.104c-66.177-37.505-108.045-108.388-108.045-185.246 0-2.339 0.041-4.692 0.122-7.053-69.639-45.798-112.043-123.517-112.043-207.843 0-137.132 111.569-248.697 248.71-248.697h54.018v-206.257c0-18.667 15.129-33.801 33.801-33.801h110.866c18.672 0 33.801 15.134 33.801 33.801v206.257h54.027c137.141 0 248.71 111.565 248.71 248.697 0 84.322-42.409 162.036-112.043 207.838zM533.628 3.601h-43.265v172.456h43.265v-172.456zM655.257 243.659h-286.513c-99.861 0-181.109 81.239-181.109 181.095 0 66.966 36.735 128.217 95.868 159.855 12.502 6.693 19.505 20.479 17.527 34.522-0.978 6.936-1.474 13.84-1.474 20.524 0 56.551 33.228 108.37 84.651 132.008 10.51 4.831 17.82 14.706 19.375 26.166 7.314 53.914 53.928 94.57 108.424 94.57 54.5 0 101.109-40.656 108.424-94.57 1.555-11.461 8.86-21.331 19.366-26.166 51.422-23.661 84.651-75.475 84.651-132.012 0-6.792-0.491-13.665-1.465-20.42-2.028-14.075 4.971-27.919 17.513-34.625 59.138-31.637 95.872-92.884 95.872-159.855 0-99.852-81.248-181.091-181.109-181.091z" />
<glyph unicode="&#xe948;" glyph-name="trophy" d="M972.418 897.991h-113.801v27.065c0 19.303-15.646 34.944-34.944 34.944h-623.352c-19.298 0-34.944-15.641-34.944-34.944v-27.065h-113.796c-19.298 0-34.944-15.646-34.944-34.944v-235.177c0-145.996 116.442-265.233 261.32-269.906 53.641-49.192 122.746-81.769 199.101-89.442v-262.634h-121.008c-19.298 0-34.944-15.641-34.944-34.944s15.646-34.944 34.944-34.944h311.676c19.298 0 34.944 15.641 34.944 34.944s-15.646 34.944-34.944 34.944h-120.775v262.634c76.355 7.678 145.455 40.255 199.092 89.442 144.877 4.673 261.32 123.911 261.32 269.906v235.177c0 19.298-15.646 34.944-34.944 34.944zM235.265 890.112h553.464v-276.737c0-152.588-124.139-276.728-276.723-276.728-152.598 0-276.742 124.139-276.742 276.728v276.737zM86.526 627.87v200.233h78.852v-214.723c0-62 16.442-120.198 45.073-170.601-72.66 30.061-123.925 101.687-123.925 185.091zM937.474 627.87c0-83.399-51.265-155.025-123.93-185.095 28.635 50.403 45.073 108.606 45.073 170.601v214.728h78.857v-200.233z" />
<glyph unicode="&#xe949;" glyph-name="unlock" d="M798.544 577.956h-443.141v156.606c0 86.342 70.25 156.588 156.606 156.588 86.352 0 156.606-70.245 156.606-156.588 0-19.016 15.409-34.425 34.425-34.425s34.425 15.409 34.425 34.425c0 124.306-101.141 225.438-225.456 225.438s-225.456-101.131-225.456-225.438v-156.606h-61.093c-19.016 0-34.425-15.409-34.425-34.425v-573.102c0-19.016 15.409-34.425 34.425-34.425h573.084c19.016 0 34.425 15.409 34.425 34.425v573.102c0 19.012-15.413 34.425-34.425 34.425zM764.119 4.85h-504.238v504.257h504.238v-504.257z" />
<glyph unicode="&#xe94a;" glyph-name="upload" d="M856.723 698.166h-210.075c-20.074 0-36.348-16.269-36.348-36.348 0-20.074 16.274-36.348 36.348-36.348h173.727v-616.776h-616.751v616.776h173.713c20.074 0 36.348 16.269 36.348 36.348s-16.274 36.348-36.348 36.348h-210.060c-20.074 0-36.348-16.269-36.348-36.348v-689.471c0-20.078 16.274-36.348 36.348-36.348h689.447c20.074 0 36.348 16.269 36.348 36.348v689.471c0 20.074-16.274 36.348-36.348 36.348zM397.682 757.941l77.963 77.963v-533.36c0-20.078 16.274-36.348 36.348-36.348 20.078 0 36.348 16.269 36.348 36.348v533.355l77.958-77.958c7.095-7.1 16.4-10.647 25.7-10.647s18.6 3.552 25.7 10.643c14.195 14.2 14.195 37.21 0 51.405l-140.006 140.011c-6.814 6.819-16.061 10.647-25.7 10.647-9.635 0-18.881-3.829-25.7-10.643l-140.016-140.011c-14.195-14.195-14.195-37.21 0-51.4 14.195-14.2 37.21-14.195 51.405-0.005z" />
</font>
</defs>
</svg>
